<?xml version="1.0" encoding="utf-8"?>
<!-- Generator: Adobe Illustrator 24.2.1, SVG Export Plug-In . SVG Version: 6.00 Build 0)  -->
<svg version="1.1" xmlns="http://www.w3.org/2000/svg" xmlns:xlink="http://www.w3.org/1999/xlink" x="0px" y="0px"
	 viewBox="0 0 1000 1000" style="enable-background:new 0 0 1000 1000;" xml:space="preserve">
<style type="text/css">
	.st0{display:none;}
	.st1{display:inline;fill:url(#SVGID_1_);}
	.st2{display:inline;}
	.st3{fill:none;stroke:#FFFFFF;stroke-width:10;stroke-linecap:round;stroke-miterlimit:10;}
	.st4{display:inline;fill:none;stroke:#FFFFFF;stroke-width:10;stroke-miterlimit:10;}
	.st5{display:inline;fill:none;stroke:#FFFFFF;stroke-width:10;stroke-linecap:round;stroke-miterlimit:10;}
	.st6{fill:url(#SVGID_2_);}
	.st7{fill:none;stroke:#FCFCFC;stroke-width:10;stroke-linecap:round;stroke-miterlimit:10;}
	.st8{fill:none;stroke:#FFFFFF;stroke-width:10;stroke-miterlimit:10;}
	.st9{display:inline;fill:url(#SVGID_3_);}
	.st10{display:inline;fill:url(#SVGID_4_);}
	.st11{display:inline;fill:url(#SVGID_5_);}
</style>
<g id="Calque_1" class="st0">
	<linearGradient id="SVGID_1_" gradientUnits="userSpaceOnUse" x1="267.9175" y1="818.6062" x2="729.9175" y2="188.6062">
		<stop  offset="0" style="stop-color:#2596BE"/>
		<stop  offset="1" style="stop-color:#15576E"/>
	</linearGradient>
	<path class="st1" d="M884.5,663.2V336.8c0-35.8-19.1-68.9-50.1-86.8L551.7,86.8c-31-17.9-69.2-17.9-100.2,0L168.7,250
		c-31,17.9-50.1,51-50.1,86.8v326.5c0,35.8,19.1,68.9,50.1,86.8l282.7,163.2c31,17.9,69.2,17.9,100.2,0L834.4,750
		C865.4,732.1,884.5,699,884.5,663.2z"/>
	<g class="st2">
		<circle class="st3" cx="512" cy="437.9" r="142.2"/>
		<path class="st3" d="M512,580.1c-203,2.3-185.5,223.2-185.5,223.2"/>
		<path class="st3" d="M700.2,803.4c0,0,2.1-223.2-188.2-223.2"/>
	</g>
	<circle class="st4" cx="673.4" cy="272" r="65"/>
	<line class="st5" x1="629.9" y1="272" x2="716.4" y2="272"/>
	<line class="st5" x1="673.4" y1="233" x2="673.4" y2="314"/>
</g>
<g id="Calque_2">
	<linearGradient id="SVGID_2_" gradientUnits="userSpaceOnUse" x1="277.0242" y1="818.6012" x2="739.0242" y2="188.6012">
		<stop  offset="0" style="stop-color:#2644B6"/>
		<stop  offset="1" style="stop-color:#2D2463"/>
	</linearGradient>
	<path class="st6" d="M893.6,663.2V336.8c0-35.8-19.1-68.9-50.1-86.8L560.8,86.8c-31-17.9-69.2-17.9-100.2,0L177.8,250
		c-31,17.9-50.1,51-50.1,86.8v326.5c0,35.8,19.1,68.9,50.1,86.8l282.7,163.2c31,17.9,69.2,17.9,100.2,0L843.5,750
		C874.5,732.1,893.6,699,893.6,663.2z"/>
	<g id="Calque_7">
		
			<image style="display:none;overflow:visible;" width="1138" height="209" xlink:href="7CBAEEB5.jpg"  transform="matrix(3.194 0 0 3.194 -564.9686 127.3331)">
		</image>
		<path class="st7" d="M660.2,356.2c0,0,72.8,85.3,4.5,182.2s-52.9,59.2-57.9,90.8l-1.8,60.3c0,0-1.5,24.6-34.1,25.6H444.4
			c0,0-28.6,6-28.6-28.1c0-34.1,0-49.7,0-49.7s1-30.1-27.6-53.7c-28.6-23.6-47.1-57.3-49.6-104.5c-2.6-47.1,3-116.6,44.8-154.2
			c73.7-66.4,151.5-64.6,207-32.8c0,0,15.1,3.9,50.8,43.7"/>
		<line class="st7" x1="365.1" y1="605.6" x2="341.6" y2="628.7"/>
		<line class="st7" x1="308.4" y1="454.6" x2="266.3" y2="454.6"/>
		<line class="st7" x1="365.1" y1="303.6" x2="341.6" y2="280.5"/>
		<line class="st7" x1="511.2" y1="240.3" x2="511.2" y2="208.2"/>
		<line class="st7" x1="660.2" y1="306.6" x2="684.8" y2="280.5"/>
		<line class="st7" x1="717.4" y1="456.6" x2="755.1" y2="456.6"/>
		<line class="st7" x1="660.2" y1="610.7" x2="684.8" y2="631.2"/>
		<path class="st7" d="M462.5,681.4v-99.4V559c0,0,1-16.6,9.5-16.1l85.3,0c0,0,6.5-1,6.5,11.6v28.6v132.4"/>
		<line class="st7" x1="462.5" y1="582.1" x2="563.9" y2="582.1"/>
		<rect x="475.5" y="505.8" class="st7" width="74.3" height="37.1"/>
		<path class="st7" d="M513.9,353.7l-71,94.8c0,0,35.1,38.6,39.6,57.2"/>
		<path class="st7" d="M514.3,353.7l71,94.8c0,0-35.1,38.6-39.6,57.2"/>
		<line class="st7" x1="513.9" y1="459.1" x2="513.9" y2="353.7"/>
		<line class="st7" x1="445.4" y1="755.7" x2="546.8" y2="755.7"/>
		<path class="st7" d="M444.4,715l-1.5,65.2c0,0-3.5,21.6,26.1,23.1h90.3c0,0,19.1,4,18.1-22.1l0-65.8"/>
	</g>
	<g id="Calque_8">
	</g>
	<g>
		<circle class="st3" cx="-1275.3" cy="490" r="142.2"/>
		<path class="st3" d="M-1275.3,632.2c-203,2.3-185.5,223.2-185.5,223.2"/>
		<path class="st3" d="M-1087.1,855.4c0,0,2.1-223.2-188.2-223.2"/>
	</g>
	<circle class="st8" cx="-1113.8" cy="324.1" r="65"/>
	<line class="st3" x1="-1157.4" y1="324.1" x2="-1070.8" y2="324.1"/>
	<line class="st3" x1="-1113.8" y1="285.1" x2="-1113.8" y2="366.1"/>
</g>
<g id="Calque_4" class="st0">
	<linearGradient id="SVGID_3_" gradientUnits="userSpaceOnUse" x1="266.3575" y1="807.2679" x2="728.3575" y2="177.2679">
		<stop  offset="0" style="stop-color:#7028C2"/>
		<stop  offset="1" style="stop-color:#3B1567"/>
	</linearGradient>
	<path class="st9" d="M882.9,651.9V325.4c0-35.8-19.1-68.9-50.1-86.8L550.1,75.4c-31-17.9-69.2-17.9-100.2,0L167.2,238.7
		c-31,17.9-50.1,51-50.1,86.8v326.5c0,35.8,19.1,68.9,50.1,86.8l282.7,163.2c31,17.9,69.2,17.9,100.2,0l282.7-163.2
		C863.8,720.8,882.9,687.7,882.9,651.9z"/>
</g>
<g id="Calque_5" class="st0">
	<linearGradient id="SVGID_4_" gradientUnits="userSpaceOnUse" x1="266.3575" y1="828.6012" x2="728.3575" y2="198.6012">
		<stop  offset="0" style="stop-color:#BE0A80"/>
		<stop  offset="1" style="stop-color:#621053"/>
	</linearGradient>
	<path class="st10" d="M882.9,673.2V346.8c0-35.8-19.1-68.9-50.1-86.8L550.1,96.8c-31-17.9-69.2-17.9-100.2,0L167.2,260
		c-31,17.9-50.1,51-50.1,86.8v326.5c0,35.8,19.1,68.9,50.1,86.8l282.7,163.2c31,17.9,69.2,17.9,100.2,0L832.8,760
		C863.8,742.1,882.9,709,882.9,673.2z"/>
</g>
<g id="Calque_6" class="st0">
	<linearGradient id="SVGID_5_" gradientUnits="userSpaceOnUse" x1="275.6909" y1="804.6012" x2="737.6909" y2="174.6012">
		<stop  offset="0" style="stop-color:#8A1219"/>
		<stop  offset="1" style="stop-color:#470C10"/>
	</linearGradient>
	<path class="st11" d="M892.2,649.2V322.8c0-35.8-19.1-68.9-50.1-86.8L559.4,72.8c-31-17.9-69.2-17.9-100.2,0L176.5,236
		c-31,17.9-50.1,51-50.1,86.8v326.5c0,35.8,19.1,68.9,50.1,86.8l282.7,163.2c31,17.9,69.2,17.9,100.2,0L842.2,736
		C873.1,718.1,892.2,685,892.2,649.2z"/>
</g>
<g id="Calque_3" class="st0">
	
		<image style="display:inline;overflow:visible;" width="1138" height="209" xlink:href="7CBAEEB7.jpg"  transform="matrix(3.194 0 0 3.194 -665.4927 113.6403)">
	</image>
</g>
</svg>
