<svg id="Rendu" xmlns="http://www.w3.org/2000/svg" xmlns:xlink="http://www.w3.org/1999/xlink" viewBox="0 0 528.99 921.04"><defs><style>.cls-1{fill:#532d52;stroke:#532d52;}.cls-1,.cls-14,.cls-15,.cls-19,.cls-28,.cls-29,.cls-6,.cls-8,.cls-9{stroke-miterlimit:10;}.cls-2{fill:url(#Dégradé_sans_nom_558);}.cls-3{fill:url(#Dégradé_sans_nom_558-2);}.cls-4{fill:url(#Dégradé_sans_nom_558-3);}.cls-5{fill:url(#Dégradé_sans_nom_558-4);}.cls-6{stroke:#8c317a;fill:url(#Dégradé_sans_nom_493);}.cls-7{fill:#af5c7a;}.cls-8{fill:#ffdbff;stroke:#ffdbf4;}.cls-9{fill:#8a3955;stroke:#8a3955;}.cls-10{fill:#ffcad7;}.cls-11{fill:#fff;}.cls-12{fill:#732d60;}.cls-13{fill:#2596be;}.cls-14{fill:#0f4154;}.cls-14,.cls-15,.cls-19{stroke:#1e7898;}.cls-15{fill:#1e6987;}.cls-16{fill:#0f3c4c;}.cls-17{fill:#92cbdf;}.cls-18,.cls-19{fill:#66bdd6;}.cls-20{fill:#77bacb;}.cls-21{fill:#77a9c1;}.cls-22{fill:#fbfade;}.cls-23{fill:#181927;}.cls-24{fill:#0bbea4;}.cls-25{fill:#fcf9da;}.cls-26,.cls-28,.cls-29{fill:none;stroke:#13131f;}.cls-26{stroke-linejoin:round;stroke-width:12px;}.cls-27{fill:#13131f;}.cls-28{stroke-width:4px;}.cls-29{stroke-width:3px;}</style><radialGradient id="Dégradé_sans_nom_558" cx="558.68" cy="149.22" r="17.26" gradientTransform="translate(-282.12 -43.75) scale(1.63 1.29)" gradientUnits="userSpaceOnUse"><stop offset="0" stop-color="#6c2d4d"/><stop offset="1" stop-color="#843782"/></radialGradient><radialGradient id="Dégradé_sans_nom_558-2" cx="543.97" cy="113.38" r="14.15" xlink:href="#Dégradé_sans_nom_558"/><radialGradient id="Dégradé_sans_nom_558-3" cx="402" cy="156.29" r="18.01" xlink:href="#Dégradé_sans_nom_558"/><radialGradient id="Dégradé_sans_nom_558-4" cx="396.56" cy="204.14" r="13.71" xlink:href="#Dégradé_sans_nom_558"/><linearGradient id="Dégradé_sans_nom_493" x1="494.85" y1="466.46" x2="493" y2="18.35" gradientUnits="userSpaceOnUse"><stop offset="0" stop-color="#5a196d"/><stop offset="0.66" stop-color="#98393d"/><stop offset="1" stop-color="#ba4a23"/></linearGradient></defs><g id="Calque_35" data-name="Calque 35"><g id="Calque_36" data-name="Calque 36"><path class="cls-1" d="M632.46,424.36s74.3-27,24.27-106.91c0,0-33.89-48.49-7.53-76.33,0,0-49.07,34.43-37.11,50.87s15.41,11.36,15.41,11.36-2-14.1,3-20.76a54.86,54.86,0,0,1,8.42,18c2.48,10.18-5.21,26.63,6.31,37.2,0,0-22.57-24.28-35-26.63s-26.79-29.37-18.37-47.77c0,0-35.67,31.72-17.34,49.34S644,401.39,632.46,424.36Z" transform="translate(-243.9 -46.07)"/><path class="cls-2" d="M615.74,178.23s53.31-18.65,16.53-58.59c0,0-3.71,10.86-11.33,14.68s1.3,22.32,1.3,22.32S627.63,170.45,615.74,178.23Z" transform="translate(-243.9 -46.07)"/><path class="cls-3" d="M607,80.72s.74,10-9.48,17.48-11.33,17.18-2,24.08,21.18-3.23,26.19-9.69S622.8,93.94,607,80.72Z" transform="translate(-243.9 -46.07)"/><path class="cls-4" d="M384.53,187.43s-42.61-15.07-24-48a88.68,88.68,0,0,1,6.19-10.77s6.69,10.18,15.11,12.93,15.85,17.62,8.42,23.88S380.81,180.58,384.53,187.43Z" transform="translate(-243.9 -46.07)"/><path class="cls-5" d="M358,198.59s22.29,8.42,23.29,20c0,0,5.05,13.31-6.77,19.58,0,0-8.84,7.63-16.52-1.57,0,0-4-4.89-6.19-4.7s-6.19-12.73,2.23-17.82S366.69,204.66,358,198.59Z" transform="translate(-243.9 -46.07)"/><path class="cls-6" d="M412.32,468.44H587.18s59.43-12.24,72-47.63c4.2-11.8,1.75-29.11-7.38-44.27a67.47,67.47,0,0,0-6.68-9.2c-1.54-1.62-3.9-4.07-6.83-7-12.29-12.37-22-20.79-23.87-22.42-7.87-7-17.22-21-23.52-51.4,0,0,8.12-23.89,17.29-36s17.1-56-37.39-83c0,0,11.39,48.17-19.32,63.83,0,0,8.91-16.84-12.88-27.8S544.58,153,544.58,153,581.73,95.41,448,47.24c0,0,53,57.17,8.92,86.94s-55,78.39-24.27,106.94c0,0,18.33-17.27,12.38-37.63,0,0,31.71,49.73-35.66,84.59,0,0-47.06,17.62-45.08,25.84,0,0-7.53-29.76,3.17-36.81,0,0-30.42,15.27-25.46,41.51C342,318.62,281,417,412.32,468.44Z" transform="translate(-243.9 -46.07)"/><path class="cls-7" d="M450.66,460.31h88.67S685,428.52,564.1,324.5c0,0,85.2,84.58-16.35,118.65,0,0,43.1-37.37,7.93-92.89,0,0-39.63-59.44-4-100.56,0,0-151.09,111.61-73.31,169.17,0,0-61.92,2-59.45-35.24s44.09-52.87,36.66-81.46c0,0-20.8,30.55-39.13,36.42s-44.92,54.83-23.2,81.07S418,452.18,450.66,460.31Z" transform="translate(-243.9 -46.07)"/><path class="cls-8" d="M397.17,321.89S363.88,356.74,365.66,374C365.66,374,349.12,347.34,397.17,321.89Z" transform="translate(-243.9 -46.07)"/><path class="cls-9" d="M498.61,145.92s-.4,30.94,14,44.65,22.79,19,22.79,29.29a65.15,65.15,0,0,0-23.78-17.54C496.23,195.66,489.6,164.33,498.61,145.92Z" transform="translate(-243.9 -46.07)"/><path class="cls-10" d="M440.75,286.12a123.62,123.62,0,0,1,10.58-10.27A135.43,135.43,0,0,1,463,266.77a97,97,0,0,1,12.81-7.52,73.87,73.87,0,0,1,14-5.09c4.85-1.2,9.78-1.82,14.58-2.58a85,85,0,0,0,14.11-3.3c9.2-3.08,18-7.38,26.73-11.9a129,129,0,0,1-26,13.87,79.86,79.86,0,0,1-14.38,3.83c-4.87.84-9.69,1.47-14.35,2.67-9.4,2.25-18.12,6.57-26.35,11.76A197.73,197.73,0,0,0,440.75,286.12Z" transform="translate(-243.9 -46.07)"/><path class="cls-11" d="M457.1,460.31h83.27s109.18-38.7,42.8-114.08c0,0,58,82.43-55.48,103.58,0,0,55-33.48,28.79-84.63,0,0-56.52-58.59-21.36-94.14,0,0-132.27,91.44-45.82,154.69,0,0-64.9,11.35-78.83-42.79-8.12-31.57,22.85-28.93,30.28-52.13,0,0-12.91,13.68-28.79,22.18-25.45,13.6-25.52,49.4-5.64,72.93C427.64,451.15,420.94,444.52,457.1,460.31Z" transform="translate(-243.9 -46.07)"/><path class="cls-12" d="M440.75,286.12a74.42,74.42,0,0,1,9.5-13.51c1-1,1.87-2.06,2.87-3l3.05-2.84,3.23-2.62c1.11-.84,2.26-1.61,3.39-2.42a83.68,83.68,0,0,1,14.68-7.82,129.89,129.89,0,0,1,15.75-5.26c5.34-1.43,10.72-2.62,16.11-3.76s10.75-2.24,16.07-3.54A94.5,94.5,0,0,0,541,236.27,41.32,41.32,0,0,0,554.37,227a39.67,39.67,0,0,1-13,10.13,86.66,86.66,0,0,1-15.57,5.69c-10.66,2.93-21.51,4.83-32.06,7.72s-20.9,6.59-30.1,12.45A74.76,74.76,0,0,0,440.75,286.12Z" transform="translate(-243.9 -46.07)"/></g></g><g id="Dé20"><g id="Calque_20" data-name="Calque 20"><g id="Calque_21" data-name="Calque 21"><polygon class="cls-13" points="13.78 462.69 1.08 757.85 255.72 918.32 518.08 762.22 507.15 469.48 259.58 338.45 13.78 462.69"/><polygon class="cls-14" points="260.63 908.57 384.87 682.93 139.77 682.93 260.63 908.57"/><polygon class="cls-15" points="509.1 462.08 426.24 608.52 518.25 753.39 509.1 462.08"/><polygon class="cls-16" points="422.94 616.89 257.96 913.36 512.91 761.76 422.94 616.89"/><polygon class="cls-17" points="260.63 337.12 315.26 429.31 518.25 467.63 260.63 337.12"/><polygon class="cls-18" points="318.63 429.31 512.47 464.63 429.02 610.09 318.63 429.31"/><polygon class="cls-16" points="8.18 755.94 101.81 610.09 265.2 915.04 8.18 755.94"/><polygon class="cls-17" points="213.16 428.79 271.71 335.17 18.7 459.41 213.16 428.79"/><polygon class="cls-15" points="6 750.84 22.35 464.63 100.52 603.1 6 750.84"/><polygon class="cls-19" points="213.16 428.79 24.78 460.93 100.52 603.1 213.16 428.79"/><g id="Calque_25" data-name="Calque 25"><path class="cls-20" d="M460.71,470.41c.19,7.71.74,15.42,1.67,23.08l0,0c11.8,18.39,28.23,36,45,50h0c14.72-16.15,30.59-32.87,46.3-48.06h0q.43-12.47.26-25h0c-14.76-27.11-32.33-53.8-45.65-78.43h0c-16.21,25.29-29.9,52.18-47.59,78.33" transform="translate(-243.9 -46.07)"/><path class="cls-21" d="M459.46,470.41q.24,9.72,1.25,19.41c.08.73.16,1.47.25,2.2a5.72,5.72,0,0,0,.34,2.1c.13.22.32.26.45.45-.32-.48.32.7.3.68l1.22,1.83q2.48,3.69,5.14,7.26a231.88,231.88,0,0,0,23.39,26.71c2.36,2.31,4.76,4.59,7.21,6.81,1.21,1.1,2.42,2.18,3.65,3.26l1.84,1.59a13.36,13.36,0,0,1,1.81,1.45,1.27,1.27,0,0,0,2,.25q12.15-13.3,24.63-26.3,6.2-6.43,12.51-12.74,3.21-3.21,6.45-6.37l1.53-1.49a7.37,7.37,0,0,0,1.38-1.41,4.21,4.21,0,0,0,.21-1.87c0-.92.06-1.83.08-2.75q.29-10.49.14-21a1.27,1.27,0,0,0-2.14-.88h0l2,.25c-11.43-21-24.21-41.15-36.24-61.77-3.22-5.51-6.38-11.05-9.41-16.66a1.27,1.27,0,0,0-2-.26,24.91,24.91,0,0,0-2.06,3.2q-1.19,1.86-2.34,3.74-2.38,3.86-4.72,7.75-4.56,7.61-9,15.28c-6.07,10.43-12.09,20.88-18.41,31.15-3.64,5.89-7.37,11.73-11.25,17.47-.9,1.33,1.27,2.59,2.16,1.26,13.39-19.81,24.89-40.78,37.11-61.3q2.5-4.2,5.05-8.37,1.33-2.17,2.69-4.34l1.24-2a18,18,0,0,1,1.3-2.1l-2-.25c11.13,20.56,23.72,40.29,35.5,60.48,3.46,5.94,6.86,11.92,10.15,18a1.26,1.26,0,0,0,2,.25h0l-2.13-.89q.16,12.5-.26,25l.37-.88c-12.45,12.05-24.49,24.51-36.3,37.19q-5,5.4-10,10.86l2,.26a11,11,0,0,0-1.87-1.67c-.9-.77-1.78-1.54-2.67-2.32-1.68-1.47-3.33-3-5-4.49q-5-4.62-9.71-9.5a222.37,222.37,0,0,1-17.88-20.77c-1.52-2-3-4.06-4.45-6.14-.67-1-1.33-1.94-2-2.93-.54-.8-1.09-2.16-1.93-2.67l.62,1.08Q462.25,482,462,470.41a1.25,1.25,0,0,0-2.5,0Z" transform="translate(-243.9 -46.07)"/></g></g></g><g id="Calque_24" data-name="Calque 24"><path class="cls-22" d="M515.43,399.42q18.27,29.5,39,57.41,5.76,7.76,11.71,15.38c1,1.27,2.74-.51,1.77-1.76Q546.8,443.38,528,414.61q-5.32-8.16-10.45-16.45c-.85-1.37-3-.12-2.16,1.26Z" transform="translate(-243.9 -46.07)"/><path class="cls-22" d="M450.57,470.47l40.07-58.72L502,395.06c.91-1.33-1.26-2.58-2.16-1.26L459.8,452.52,448.41,469.2c-.91,1.34,1.26,2.59,2.16,1.27Z" transform="translate(-243.9 -46.07)"/><path class="cls-22" d="M515,396q25.63,13.79,50.93,28.22a1.25,1.25,0,0,0,1.26-2.16q-25.29-14.43-50.92-28.22c-1.42-.77-2.69,1.39-1.27,2.16Z" transform="translate(-243.9 -46.07)"/><path class="cls-22" d="M561.9,421.63l28.87,15.79c1.41.77,2.67-1.39,1.26-2.16l-28.87-15.79c-1.41-.77-2.68,1.38-1.26,2.16Z" transform="translate(-243.9 -46.07)"/><path class="cls-22" d="M590.11,435.56q24.2,14.73,48.92,28.55t50.15,26.82q14.22,7.26,28.58,14.22c1.44.7,2.71-1.45,1.26-2.15q-25.49-12.36-50.49-25.66t-49.72-27.62q-13.8-8-27.44-16.31a1.25,1.25,0,0,0-1.26,2.15Z" transform="translate(-243.9 -46.07)"/><path class="cls-22" d="M561.7,470.7q29.22,6.72,58.6,12.77t58.63,11.4q16.64,3,33.3,5.86c1.57.27,2.25-2.14.67-2.41q-29.56-5-59-10.7t-58.51-12q-16.53-3.57-33-7.36c-1.56-.36-2.23,2-.66,2.41Z" transform="translate(-243.9 -46.07)"/><path class="cls-22" d="M709.87,501.05l-36.35-6.49c-1.58-.28-2.25,2.13-.67,2.42l36.36,6.49c1.57.28,2.24-2.13.66-2.42Z" transform="translate(-243.9 -46.07)"/><path class="cls-22" d="M498.82,396q-40.05,17.57-79.32,36.79t-77.68,40.12q-22,11.94-43.66,24.42a1.25,1.25,0,0,0,1.27,2.16q38.2-22,77.34-42.34,38.79-20.16,78.42-38.67,22.32-10.43,44.89-20.32c1.47-.64.2-2.8-1.26-2.16Z" transform="translate(-243.9 -46.07)"/><path class="cls-22" d="M299.29,502q37-22.53,75.34-42.81T452.42,421q22.89-10.39,46.14-20c1.47-.6.83-3-.66-2.41Q457,415.47,417.1,434.82q-39,18.93-76.75,40.2Q319,487.05,298,499.81c-1.37.84-.12,3,1.26,2.16Z" transform="translate(-243.9 -46.07)"/><path class="cls-22" d="M497.91,399.9q-23.84,8.82-47,19.26T405.15,441.7q-13.18,7.1-26.08,14.71a1.25,1.25,0,0,0,1.27,2.16q22.28-13.17,45.45-24.75,22.66-11.31,46.07-21,13.26-5.49,26.72-10.47c1.49-.56.85-3-.67-2.41Z" transform="translate(-243.9 -46.07)"/><path class="cls-22" d="M304.84,497.59q37.21-20.2,75.07-39.2t76.29-36.75q21.53-10,43.23-19.51c1.47-.65.19-2.8-1.27-2.16Q459.42,417,421.22,435.35t-75.76,37.83q-21,10.94-41.88,22.25c-1.42.77-.16,2.93,1.26,2.16Z" transform="translate(-243.9 -46.07)"/><path class="cls-22" d="M301.81,500.19Q339.88,479,378.59,459q38.49-19.89,77.58-38.59,22.07-10.54,44.29-20.71c1.47-.67.2-2.82-1.26-2.16Q459.59,415.64,420.52,435q-38.82,19.23-77,39.65Q321.92,486.14,300.55,498c-1.41.78-.15,2.94,1.26,2.16Z" transform="translate(-243.9 -46.07)"/><path class="cls-22" d="M452.26,469.78q-29.89,6.51-59.93,12.32-29.79,5.77-59.72,10.84-17,2.9-34.09,5.55c-1.59.25-.92,2.66.66,2.41q30.22-4.71,60.34-10.14,29.88-5.37,59.61-11.44,16.92-3.46,33.8-7.13c1.57-.34.9-2.76-.67-2.41Z" transform="translate(-243.9 -46.07)"/><path class="cls-22" d="M292.68,499.55q31.47-3.63,62.76-8.57t62.49-11.25q17.55-3.56,35-7.52c1.57-.35.91-2.77-.66-2.41q-30.84,7-62,12.71t-62.2,10q-17.69,2.47-35.42,4.51c-1.58.18-1.6,2.68,0,2.5Z" transform="translate(-243.9 -46.07)"/><path class="cls-22" d="M453,466.85l-61.27,12.24-61,12.18-34.55,6.9c-1.58.32-.91,2.73.66,2.41l61.26-12.23,61-12.19,34.55-6.9c1.58-.31.91-2.72-.66-2.41Z" transform="translate(-243.9 -46.07)"/><path class="cls-22" d="M297.14,497.65l61-11.36,61-11.35,34.31-6.38c1.58-.3.91-2.7-.67-2.41l-61,11.35-61,11.35-34.31,6.39c-1.58.29-.91,2.7.67,2.41Z" transform="translate(-243.9 -46.07)"/><path class="cls-22" d="M498,399.1A569.76,569.76,0,0,0,461,450.6q-4.85,7.62-9.44,15.39a1.25,1.25,0,0,0,2.16,1.26,565.54,565.54,0,0,1,34.93-52.2q5.4-7.19,11-14.19c1-1.24-.76-3-1.77-1.76Z" transform="translate(-243.9 -46.07)"/><path class="cls-22" d="M453,470.47,489.33,418l10.21-14.76c.92-1.32-1.24-2.57-2.15-1.26l-36.31,52.47-10.21,14.75c-.92,1.33,1.25,2.58,2.16,1.26Z" transform="translate(-243.9 -46.07)"/><path class="cls-22" d="M454.23,473.5l15.93-22.59c.93-1.32-1.23-2.57-2.16-1.26l-15.93,22.58c-.93,1.32,1.24,2.57,2.16,1.27Z" transform="translate(-243.9 -46.07)"/><path class="cls-22" d="M457.7,472l20.64-30.79c.9-1.34-1.27-2.6-2.16-1.26l-20.64,30.78c-.89,1.34,1.27,2.6,2.16,1.27Z" transform="translate(-243.9 -46.07)"/><path class="cls-22" d="M469.14,454q12.44-21.87,25.07-43.62a1.25,1.25,0,0,0-2.16-1.27Q479.42,430.89,467,452.75a1.25,1.25,0,0,0,2.16,1.26Z" transform="translate(-243.9 -46.07)"/><path class="cls-22" d="M498.65,398.39q-14,22.37-28.56,44.38c-.89,1.34,1.28,2.6,2.16,1.26q14.55-22,28.56-44.38c.85-1.36-1.31-2.62-2.16-1.26Z" transform="translate(-243.9 -46.07)"/><path class="cls-22" d="M560.4,469.63a257.75,257.75,0,0,1-18.2-29.41c-.75-1.42-2.91-.16-2.16,1.26a257.75,257.75,0,0,0,18.2,29.41c.93,1.29,3.09.05,2.16-1.26Z" transform="translate(-243.9 -46.07)"/><path class="cls-22" d="M560.79,467.78q-7.45-10.51-14-21.64l-2.16,1.26q7.53,12.41,16,24.16l2-1.51a301.22,301.22,0,0,1-30.72-46.26c-.76-1.42-2.92-.16-2.16,1.26a303.27,303.27,0,0,0,31.12,46.76c.88,1.1,2.79-.36,2-1.51q-8.49-11.76-16-24.16a1.25,1.25,0,0,0-2.16,1.26q6.54,11.13,14,21.64c.93,1.3,3.1.06,2.16-1.26Z" transform="translate(-243.9 -46.07)"/><path class="cls-22" d="M543,441.38q-13.08-19.56-25.52-39.56c-.85-1.36-3-.11-2.16,1.26q12.44,20,25.52,39.56c.89,1.34,3.06.09,2.16-1.26Z" transform="translate(-243.9 -46.07)"/><path class="cls-22" d="M564.85,474a127,127,0,0,0,23.81,4.55c1.6.15,1.59-2.35,0-2.5a123.18,123.18,0,0,1-23.14-4.46,1.25,1.25,0,0,0-.67,2.41Z" transform="translate(-243.9 -46.07)"/><path class="cls-22" d="M572.09,474.53A312.74,312.74,0,0,0,607,483.15c1.57.29,2.25-2.12.66-2.42a310.35,310.35,0,0,1-34.91-8.61c-1.54-.48-2.2,1.93-.67,2.41Z" transform="translate(-243.9 -46.07)"/><path class="cls-22" d="M558.29,471.56a59.32,59.32,0,0,0,16.08,3.31c1.6.11,1.6-2.39,0-2.5A57.26,57.26,0,0,1,559,469.15c-1.52-.55-2.17,1.87-.66,2.41Z" transform="translate(-243.9 -46.07)"/><path class="cls-22" d="M568,473.71q26.22,8.27,53.12,14.11,7.61,1.65,15.25,3.09c1.57.3,2.25-2.11.67-2.41q-27-5.12-53.47-12.71-7.47-2.15-14.9-4.49c-1.54-.49-2.2,1.92-.67,2.41Z" transform="translate(-243.9 -46.07)"/><path class="cls-22" d="M614.39,485.49q21.4,5.07,43.16,8.33c1.58.23,2.25-2.17.67-2.41q-21.75-3.27-43.16-8.33c-1.57-.37-2.24,2-.67,2.41Z" transform="translate(-243.9 -46.07)"/><path class="cls-22" d="M580.2,432.71a290.42,290.42,0,0,0,27.62,15.19c1.45.69,2.72-1.46,1.27-2.16a290.49,290.49,0,0,1-27.63-15.18c-1.37-.86-2.63,1.3-1.26,2.15Z" transform="translate(-243.9 -46.07)"/><path class="cls-22" d="M516.6,399.88q26.82,15.27,54.27,29.38t55.49,27q16.14,7.43,32.46,14.46c1.46.63,2.74-1.52,1.26-2.16q-28.71-12.37-56.88-26-27.78-13.44-55-28.06-15.29-8.22-30.37-16.81a1.25,1.25,0,0,0-1.26,2.16Z" transform="translate(-243.9 -46.07)"/><path class="cls-22" d="M564.41,423.56q25.32,15,51.07,29.27t51.71,27.63q14.74,7.6,29.62,15c1.44.71,2.71-1.45,1.26-2.16q-26.39-13-52.37-26.87t-51.34-28.3q-14.42-8.22-28.69-16.69a1.25,1.25,0,0,0-1.26,2.16Z" transform="translate(-243.9 -46.07)"/><path class="cls-22" d="M520.75,404l-4.42-6.87a1.25,1.25,0,1,0-2.16,1.27l4.42,6.86a1.25,1.25,0,1,0,2.16-1.26Z" transform="translate(-243.9 -46.07)"/><path class="cls-22" d="M516.65,396.58l-4.21-7.3a1.26,1.26,0,0,0-1.71-.44,1.28,1.28,0,0,0-.45,1.71l4.21,7.3a1.25,1.25,0,0,0,2.16-1.27Z" transform="translate(-243.9 -46.07)"/><path class="cls-22" d="M519.85,402.19a132.4,132.4,0,0,1-7.66-14.1,1.26,1.26,0,0,0-1.71-.45,1.28,1.28,0,0,0-.44,1.71,130.56,130.56,0,0,0,7.65,14.1c.85,1.36,3,.11,2.16-1.26Z" transform="translate(-243.9 -46.07)"/><path class="cls-22" d="M517.39,400.06l-5.58-8.78a1.25,1.25,0,1,0-2.16,1.27l5.58,8.77a1.25,1.25,0,1,0,2.16-1.26Z" transform="translate(-243.9 -46.07)"/><path class="cls-22" d="M502.55,388.3a220.05,220.05,0,0,0-13.07,18.48c-.74,1.18,1.08,2.65,2,1.52l16.85-21.45c1-1.24-.71-3-1.76-1.77q-9.46,11.12-18,22.92c-.95,1.31,1.22,2.55,2.15,1.26q8.38-11.53,17.63-22.41l-1.76-1.77-16.86,21.45,2,1.52a214.57,214.57,0,0,1,12.67-18c1-1.25-.77-3-1.76-1.77Z" transform="translate(-243.9 -46.07)"/><path class="cls-22" d="M502,392a146.6,146.6,0,0,1-10.75,15.62l2,1.52L507.88,389c.95-1.3-1.21-2.55-2.15-1.26L491,407.92c-.83,1.13,1.08,2.63,2,1.51a151.16,151.16,0,0,0,11.15-16.13A1.25,1.25,0,0,0,502,392Z" transform="translate(-243.9 -46.07)"/><path class="cls-22" d="M504.17,390.11a158.47,158.47,0,0,0-14.41,19.47c-.85,1.36,1.31,2.62,2.16,1.26a152.65,152.65,0,0,1,14-19c1.05-1.21-.71-3-1.77-1.77Z" transform="translate(-243.9 -46.07)"/><path class="cls-22" d="M504.07,390.42l-18.2,24.86c-.95,1.3,1.22,2.55,2.16,1.26l18.2-24.85c.95-1.3-1.22-2.55-2.16-1.27Z" transform="translate(-243.9 -46.07)"/><path class="cls-22" d="M500.51,394.1l-15.65,22.77c-.91,1.33,1.25,2.58,2.16,1.26l15.65-22.77c.91-1.33-1.26-2.58-2.16-1.26Z" transform="translate(-243.9 -46.07)"/><path class="cls-22" d="M494.24,408.61l13.56-18.14a1.26,1.26,0,0,0-.45-1.71,1.28,1.28,0,0,0-1.71.45l-13.56,18.14a1.26,1.26,0,0,0,.45,1.71,1.28,1.28,0,0,0,1.71-.45Z" transform="translate(-243.9 -46.07)"/><path class="cls-22" d="M499.46,396l-6.17,8a1.29,1.29,0,0,0,0,1.77,1.26,1.26,0,0,0,1.76,0l6.17-8a1.29,1.29,0,0,0,0-1.77,1.26,1.26,0,0,0-1.76,0Z" transform="translate(-243.9 -46.07)"/><path class="cls-22" d="M500.91,399.46l1-1.39-2.16-1.26-5.54,8,2.29,1a17,17,0,0,1,4.75-6.61l-2-1.52a49,49,0,0,1-4.06,5.44l2,1.51a60.77,60.77,0,0,1,6.21-10.85l-2.16-1.26a59.94,59.94,0,0,1-6.38,11.06c-.82,1.13,1.09,2.63,2,1.51l7.07-9.06-2-1.51a23.29,23.29,0,0,1-4.49,6l2,1.52,6-9.45c.86-1.36-1.3-2.61-2.16-1.26l-6,9.44c-.77,1.22,1,2.49,2,1.52a25.44,25.44,0,0,0,4.88-6.55,1.25,1.25,0,0,0-.32-1.61,1.24,1.24,0,0,0-1.64.09L495,403.3l2,1.51a59.62,59.62,0,0,0,6.38-11.06,1.25,1.25,0,0,0-2.16-1.26,60.12,60.12,0,0,0-6.2,10.85,1.26,1.26,0,0,0,.32,1.62,1.25,1.25,0,0,0,1.64-.1,52.64,52.64,0,0,0,4.45-5.95c.81-1.25-.94-2.4-2-1.51a19.73,19.73,0,0,0-5.39,7.71,1.24,1.24,0,0,0,.72,1.48,1.27,1.27,0,0,0,1.56-.52l5.54-8a1.27,1.27,0,0,0-.45-1.71,1.28,1.28,0,0,0-1.71.45l-1,1.39a1.26,1.26,0,0,0,.45,1.71,1.28,1.28,0,0,0,1.71-.45Z" transform="translate(-243.9 -46.07)"/><path class="cls-23" d="M294.43,685.41q-1-25.92-1.36-51.88-.09-7.32-.15-14.65a5,5,0,0,0-10,0q.18,25.95,1,51.89.22,7.32.51,14.64c.1,2.61,2.23,5.13,5,5a5.07,5.07,0,0,0,5-5Z" transform="translate(-243.9 -46.07)"/><path class="cls-23" d="M731,685.17c.78-8.45.67-17,.89-25.51l.7-26.1.39-14.67a5,5,0,1,0-10,0q-.69,26-1.39,52c-.12,4.77-.15,9.56-.59,14.32-.24,2.62,2.47,5.12,5,5a5.13,5.13,0,0,0,5-5Z" transform="translate(-243.9 -46.07)"/><path class="cls-24" d="M482.61,431.18a63.34,63.34,0,0,0,7.15-10.82c.75-1.42-1.41-2.69-2.16-1.26a60,60,0,0,1-6.76,10.31,1.29,1.29,0,0,0,0,1.77,1.27,1.27,0,0,0,1.77,0Z" transform="translate(-243.9 -46.07)"/><path class="cls-22" d="M480.16,434.32a115.29,115.29,0,0,1,9.18-17.06c.88-1.35-1.29-2.61-2.16-1.26A116.23,116.23,0,0,0,478,433.06a1.29,1.29,0,0,0,.45,1.71,1.25,1.25,0,0,0,1.71-.45Z" transform="translate(-243.9 -46.07)"/><path class="cls-22" d="M480.76,435.23q5-9.06,10.11-18a1.25,1.25,0,0,0-2.16-1.26q-5.13,9-10.11,18c-.77,1.41,1.39,2.67,2.16,1.26Z" transform="translate(-243.9 -46.07)"/><path class="cls-22" d="M482.14,432l15.14-25.51a1.25,1.25,0,0,0-2.16-1.27L480,430.72a1.25,1.25,0,0,0,2.16,1.26Z" transform="translate(-243.9 -46.07)"/><path class="cls-22" d="M488.52,421.64l19.41-29.84c.88-1.35-1.28-2.61-2.15-1.26l-19.42,29.84c-.88,1.35,1.29,2.61,2.16,1.26Z" transform="translate(-243.9 -46.07)"/><path class="cls-22" d="M509.26,391.13l.08.07-.25-.2a6.52,6.52,0,0,1,1.05,1.05l-.19-.25a6.41,6.41,0,0,1,.65,1.06l2-1.51-1.34-1.56-.25-.2a.89.89,0,0,0-.47-.14,1.15,1.15,0,0,0-.79.14,1.38,1.38,0,0,0-.45.45,1,1,0,0,0-.15.47,1,1,0,0,0,0,.5l.47,1.12,2.09-1.21-.7-.72a1.24,1.24,0,0,0-1.77,0,1.21,1.21,0,0,0-.36.88,1.27,1.27,0,0,0,.36.88l.71.72a1.27,1.27,0,0,0,1.51.2,1.61,1.61,0,0,0,.45-.45A1,1,0,0,0,512,392a.94.94,0,0,0,0-.5l-.47-1.13-2.09,1.22,1.34,1.55a.92.92,0,0,0,.4.26.91.91,0,0,0,.49.11,1.27,1.27,0,0,0,.75-.27,1.19,1.19,0,0,0,.45-.65l0-.33a1.24,1.24,0,0,0-.17-.63,7.44,7.44,0,0,0-1-1.45,6.82,6.82,0,0,0-1.28-1.18.89.89,0,0,0-.47-.14,1,1,0,0,0-.5,0,1.25,1.25,0,0,0-.74.57,1.26,1.26,0,0,0-.13,1l.13.29a1.21,1.21,0,0,0,.45.45Z" transform="translate(-243.9 -46.07)"/><path class="cls-22" d="M491,404,480.56,423c-.77,1.41,1.39,2.67,2.16,1.26l10.46-19.05c.77-1.41-1.38-2.68-2.16-1.26Z" transform="translate(-243.9 -46.07)"/><path class="cls-22" d="M490.51,404.92l-7.66,14.52c-.75,1.42,1.41,2.69,2.16,1.26l7.65-14.52c.75-1.42-1.4-2.69-2.15-1.26Z" transform="translate(-243.9 -46.07)"/><path class="cls-22" d="M490.65,404.76a125.06,125.06,0,0,0-7.83,15.12,1.29,1.29,0,0,0,.45,1.71,1.26,1.26,0,0,0,1.71-.45A125.06,125.06,0,0,1,492.81,406a1.25,1.25,0,0,0-2.16-1.26Z" transform="translate(-243.9 -46.07)"/><path class="cls-22" d="M489.39,404.59q-2.72,8.37-5.94,16.58a1.25,1.25,0,0,0,2.42.66q3.21-8.19,5.93-16.58c.5-1.53-1.91-2.19-2.41-.66Z" transform="translate(-243.9 -46.07)"/><path class="cls-22" d="M489.09,405.71q-3.79,8.81-6.89,17.89c-.51,1.53,1.9,2.18,2.42.67q3-8.79,6.63-17.3a1.29,1.29,0,0,0-.45-1.71,1.26,1.26,0,0,0-1.71.45Z" transform="translate(-243.9 -46.07)"/><path class="cls-22" d="M521.11,401.12a59.88,59.88,0,0,0,3.27,13.59,1.29,1.29,0,0,0,1.54.88,1.26,1.26,0,0,0,.87-1.54,57.13,57.13,0,0,1-3.18-12.93,1.29,1.29,0,0,0-1.25-1.25,1.26,1.26,0,0,0-1.25,1.25Z" transform="translate(-243.9 -46.07)"/><path class="cls-22" d="M674.28,493.47a237.35,237.35,0,0,0-23.51-4.12c-1.59-.2-1.58,2.3,0,2.5a229.25,229.25,0,0,1,22.84,4c1.57.36,2.24-2.05.67-2.41Z" transform="translate(-243.9 -46.07)"/><path class="cls-22" d="M638.56,488.09l-42.94-7.85c-1.57-.29-2.25,2.12-.67,2.41l42.94,7.85c1.58.29,2.25-2.12.67-2.41Z" transform="translate(-243.9 -46.07)"/><path class="cls-22" d="M620.77,482.74Q606.46,480,592,478.25c-1.59-.19-1.58,2.31,0,2.5q14.14,1.69,28.13,4.4c1.57.3,2.25-2.11.67-2.41Z" transform="translate(-243.9 -46.07)"/><path class="cls-22" d="M557.58,463.21a65.31,65.31,0,0,0,4.36,9.13,1.25,1.25,0,1,0,2.16-1.26,60.81,60.81,0,0,1-4.11-8.53,1.25,1.25,0,1,0-2.41.66Z" transform="translate(-243.9 -46.07)"/><path class="cls-22" d="M682.26,481.45c-.91-1.64-2.77-2.46-4.31-3.39l-5.87-3.53-11.74-7a1.25,1.25,0,0,0-1.27,2.15l11,6.62,5.51,3.31c.85.52,1.71,1,2.57,1.54a5,5,0,0,1,2,1.61c.78,1.41,2.94.15,2.15-1.26Z" transform="translate(-243.9 -46.07)"/><path class="cls-22" d="M661.07,469.42l-.09-.05.62,1.08-.11.4-1.08.62c-.32-.13-.34-.13-.07,0l.57.32.94.53,2.07,1.18,4,2.25,8.1,4.61,1.26-2.16c-6.25-3.12-12.61-6-19.14-8.52-1.33-.51-2.2,1.62-1,2.28l21.76,11.78c1.42.77,2.68-1.39,1.26-2.16L658.4,469.82l-1,2.29A199.57,199.57,0,0,1,676,480.38c1.43.71,2.67-1.36,1.26-2.16l-11.11-6.32-2.83-1.61a10.28,10.28,0,0,0-2.37-1.28c-1.55-.38-2.63,1.76-1.12,2.57s2.68-1.41,1.26-2.16Z" transform="translate(-243.9 -46.07)"/><path class="cls-22" d="M681,483.93a28.47,28.47,0,0,1,3.82,1.66,32.14,32.14,0,0,1,3.72,2.27,1.26,1.26,0,0,0,1.71-.45,1.28,1.28,0,0,0-.45-1.71,33.18,33.18,0,0,0-8.14-4.18,1.26,1.26,0,0,0-1.54.87,1.29,1.29,0,0,0,.88,1.54Z" transform="translate(-243.9 -46.07)"/><path class="cls-22" d="M695.54,493.7l-14.7-.5c-1.61-.06-1.6,2.44,0,2.5l14.7.5c1.61.05,1.6-2.45,0-2.5Z" transform="translate(-243.9 -46.07)"/><path class="cls-22" d="M682.91,495.63q6.93-.76,13.88-1.35A1.28,1.28,0,0,0,698,493a1.26,1.26,0,0,0-1.25-1.25q-6.94.59-13.88,1.35a1.28,1.28,0,0,0-1.25,1.25,1.25,1.25,0,0,0,1.25,1.25Z" transform="translate(-243.9 -46.07)"/><path class="cls-22" d="M686.76,487.74l26.54,12.54c1.44.68,2.71-1.47,1.26-2.16L688,485.58c-1.44-.68-2.71,1.47-1.26,2.16Z" transform="translate(-243.9 -46.07)"/><path class="cls-22" d="M715.12,504.43q4.23,1,8.39,2.21a1.25,1.25,0,0,0,1.53-.87,1.27,1.27,0,0,0-.87-1.54c-2.77-.83-5.57-1.57-8.38-2.21a1.28,1.28,0,0,0-1.54.87,1.26,1.26,0,0,0,.87,1.54Z" transform="translate(-243.9 -46.07)"/><path class="cls-22" d="M322.86,491.86q6.63-5.43,13.53-10.53a1.28,1.28,0,0,0,.44-1.71,1.25,1.25,0,0,0-1.71-.44q-7.14,5.28-14,10.91a1.27,1.27,0,0,0,0,1.77,1.3,1.3,0,0,0,1.77,0Z" transform="translate(-243.9 -46.07)"/><path class="cls-22" d="M327,490.35q8.1-7.67,16.82-14.63a1.27,1.27,0,0,0,0-1.77,1.29,1.29,0,0,0-1.77,0q-8.71,7-16.82,14.64c-1.17,1.1.6,2.87,1.77,1.76Z" transform="translate(-243.9 -46.07)"/></g><g id="détails"><path class="cls-25" d="M657.75,573c5.23-6.79,16.08-13.6,23.89-17.14h0c-14.46-3.19-30.09-18.46-39.77-29.66h0c8.54,12.33,15.92,31.9,16.13,46.9" transform="translate(-243.9 -46.07)"/><path class="cls-25" d="M335.78,554.48c11.76-5.41,25.55-16.63,34.56-25.93h0a83.7,83.7,0,0,0-14,43.59h0a45.9,45.9,0,0,0-22.55-17.07" transform="translate(-243.9 -46.07)"/><path class="cls-23" d="M725.57,614.16c-3.44,3.38-2.94,9.19-3.11,13.6q-.36,9.12-.34,18.26.06,18.4,1.68,36.74c.14,1.57.25,3.15.45,4.71a5.59,5.59,0,0,0,1.29,3.26c1.17,1.17,3.4,1.22,4.23-.35.38-.71-.7-1.35-1.08-.63-.61,1.14-2.11.47-2.62-.38a8.92,8.92,0,0,1-.75-3.66q-.37-3.93-.68-7.87-.61-8-.93-16c-.42-10.52-.45-21.07-.09-31.59.09-2.82.16-5.64.38-8.45.19-2.43.64-5,2.45-6.74.58-.56-.31-1.45-.88-.88Z" transform="translate(-243.9 -46.07)"/><path class="cls-23" d="M731.22,689.59q1.06-16.9,1.18-33.85.06-8.47-.12-16.94a144.25,144.25,0,0,0-.64-15c-.51-4.09-1.8-8.3-5.46-10.63-.68-.43-1.31.65-.63,1.08,3.46,2.21,4.52,6.42,4.93,10.26.51,4.89.46,9.88.56,14.79q.33,16.07-.2,32.13-.3,9.09-.87,18.16c-.05.81,1.2.8,1.25,0Z" transform="translate(-243.9 -46.07)"/><path class="cls-23" d="M283.87,617.39a301.5,301.5,0,0,0-2.16,37.88q.07,9.42.72,18.84.33,4.65.8,9.27c.23,2.24.37,4.81,2,6.55,3,3.27,7.95.59,9.47-2.79a18.19,18.19,0,0,0,1.14-7.39q0-4.86.07-9.7l.29-38.46A103.11,103.11,0,0,0,296.1,621a10.93,10.93,0,0,0-3-7.09,6.23,6.23,0,0,0-6.55-1.54,9.5,9.5,0,0,0-4.88,5.22c-.33.73.75,1.36,1.08.63.89-2,2.3-4,4.46-4.77,2.48-.82,4.9.73,6.19,2.81,1.41,2.27,1.53,5.07,1.54,7.67,0,2.88,0,5.75-.06,8.62l-.25,34.21-.07,8.49a76.05,76.05,0,0,1-.19,8c-.28,2.4-1.13,4.89-3.34,6.16s-4.57.84-5.66-1.45-1-5.11-1.2-7.53c-.26-2.77-.47-5.53-.65-8.3q-.53-8.45-.59-16.89a301.5,301.5,0,0,1,2.16-37.88c.1-.8-1.15-.79-1.25,0Z" transform="translate(-243.9 -46.07)"/><path class="cls-23" d="M506.34,429.3a171.32,171.32,0,0,0,4,30.66c5.39,6.13,10.31,7.76,18.3,9.4-9.16,3-12.8,5.76-17,9.81-1.35,20-1.44,43.38-4.84,64.27-3.41-20.89-4.5-44.28-5.86-64.27-4.2-4.05-7.84-6.78-17-9.81,8-1.64,12.92-3.27,18.3-9.4a171.32,171.32,0,0,0,4-30.66" transform="translate(-243.9 -46.07)"/><path class="cls-23" d="M505.72,429.3a171.12,171.12,0,0,0,2.59,23.57c.35,1.95.74,3.89,1.14,5.83a3.83,3.83,0,0,0,.87,2.15c.54.6,1.11,1.19,1.7,1.74a24.37,24.37,0,0,0,6.77,4.56,47.27,47.27,0,0,0,9.7,2.81v-1.2a46,46,0,0,0-12.65,6,44.87,44.87,0,0,0-4.22,3.56c-.78.74-.63,1.48-.7,2.54-.1,1.58-.2,3.16-.28,4.74-.67,12.16-1.05,24.34-2,36.48-.56,7.09-1.3,14.17-2.44,21.19h1.21c-2-12.39-3.15-24.89-4.06-37.39-.44-6-.82-12.06-1.21-18.09-.09-1.45-.19-2.91-.28-4.36-.05-.72-.09-1.43-.14-2.15a10.65,10.65,0,0,0-.14-2.12c-.24-.74-1.05-1.27-1.62-1.79s-1.37-1.2-2.08-1.76a44.33,44.33,0,0,0-13.77-6.86V470c5.65-1.16,11.1-2.71,15.56-6.54a13.62,13.62,0,0,0,3.11-3.14,11,11,0,0,0,.62-2.76c.2-1,.4-2,.59-3q1.08-5.65,1.79-11.37c.56-4.59.92-9.2,1.11-13.82,0-.81-1.22-.81-1.25,0A175.94,175.94,0,0,1,502,458.13a5.43,5.43,0,0,1-.46,1.69,7.41,7.41,0,0,1-1.05,1.12,27.27,27.27,0,0,1-2.1,1.93,22.31,22.31,0,0,1-4.21,2.73,41.83,41.83,0,0,1-10.4,3.16c-.64.13-.55,1,0,1.2a44.93,44.93,0,0,1,12.47,6c.76.56,1.49,1.17,2.21,1.79.56.49,1.63,1.18,1.89,1.87a8.4,8.4,0,0,1,.15,2.13c0,.57.07,1.15.11,1.72.1,1.53.2,3.05.29,4.58.77,12,1.53,24,2.75,35.92.68,6.58,1.5,13.14,2.55,19.67a.63.63,0,0,0,1.21,0A335.32,335.32,0,0,0,510.79,508c.31-5.91.56-11.82.85-17.73.15-2.84.3-5.67.47-8.51a8.85,8.85,0,0,1,.14-2.13,2.7,2.7,0,0,1,.77-.85c.7-.66,1.42-1.29,2.17-1.9,4-3.26,8.77-5.26,13.64-6.88.54-.18.64-1.07,0-1.2a41.91,41.91,0,0,1-10.41-3.16,21.92,21.92,0,0,1-4.2-2.73,25.54,25.54,0,0,1-2.1-1.93,6.94,6.94,0,0,1-1.05-1.12,5.17,5.17,0,0,1-.46-1.69A175.94,175.94,0,0,1,507,429.3c0-.81-1.29-.81-1.25,0Z" transform="translate(-243.9 -46.07)"/><g id="Calque_38" data-name="Calque 38"><path class="cls-11" d="M459.25,602.2a59.08,59.08,0,0,1-.09-9.5c.06-.79.14-1.57.22-2.36.16-1.51-.1.58,0-.32.06-.39.11-.78.18-1.18q.38-2.34,1-4.65c.34-1.39.74-2.78,1.21-4.14.21-.64.46-1.27.69-1.9.08-.21.4-.86,0,.08.17-.37.33-.74.5-1.1a26.53,26.53,0,0,1,2-3.48c.18-.28.38-.54.58-.82.45-.64-.77.87.08-.08.49-.54,1-1.09,1.51-1.59.23-.23.48-.44.73-.66.69-.62,0,0-.11.07a6.83,6.83,0,0,1,1.62-1.05c.28-.16.57-.31.86-.45l.17-.08c.51-.24.47-.22-.13,0,.27-.36,1.62-.54,2-.64a2.86,2.86,0,0,1,.93-.19c-.6-.16-.73,0-.2,0a17,17,0,0,1,1.89,0c.12,0,1.23.23.45,0s.38.11.45.13l.72.2.71.26c-.55-.23-.66-.27-.33-.11s1,.56,1.44.85c1,.64-.7-.72.15.13.17.18.36.34.54.51a7.43,7.43,0,0,1,1.25,1.38c-.52-.9-.24-.33-.1-.11s.5.73.73,1.11a11.83,11.83,0,0,1,1.66,3.24c-.21-1-.13-.3,0,0l.33.89c.27.77.52,1.55.76,2.34q.6,2,1,4.08.23,1.08.39,2.16c.05.29.09.58.14.87-.18-1.18,0,.39.06.63a59.74,59.74,0,0,1,.25,8.77c-.07,1.4-.17,2.8-.32,4.2L485,601.1c0,.2-.15,1,0,0-.13.89-.26,1.77-.42,2.65-.52,3-1.19,5.92-2,8.83a158.06,158.06,0,0,1-5.94,17.33c-.5,1.27-1,2.54-1.55,3.8,0,.1-.63,1.48-.2.48-.12.27-.24.55-.35.83l-1.11,2.57q-1.93,4.45-3.9,8.87-8.9,19.92-18.8,39.34a5,5,0,0,0,0,5.05c2.49,3.5,6,4.91,10.12,5.39a106.47,106.47,0,0,0,10.87.26l24.18.26a5,5,0,1,0,0-10l-22.19-.24c-3.52,0-7.06,0-10.58-.12-.65,0-1.29-.07-1.93-.13-1-.09,1,.26-.06,0l-.84-.19a3.51,3.51,0,0,1-.81-.25c.63.28.77.34.43.18l-.43-.22c-.15-.08-.28-.17-.42-.26-.3-.21-.18-.12.38.28-.1.08-1.08-1.38-.08,0v5.05q9.45-18.57,18-37.57c5.54-12.32,11.22-24.76,14.79-37.82,3.48-12.72,4.87-26.46,1-39.26-1.84-6.08-4.86-12.29-10.48-15.7-5.84-3.54-13.45-2.78-19.1.78-6.28,4-9.9,10.73-12,17.65a62.25,62.25,0,0,0-2.38,23.27c.23,2.59,2.14,5.12,5,5,2.51-.12,5.24-2.21,5-5Z" transform="translate(-243.9 -46.07)"/><path class="cls-11" d="M514.28,614.87a297.25,297.25,0,0,0,.37,30.15c.39,6.2.94,12.38,1.58,18.56s1.12,12.21,2.74,18.1c1.43,5.23,3.78,10.56,7.74,14.37a19.36,19.36,0,0,0,17.31,5c6.3-1.21,11.74-5.64,15.3-10.82,3.91-5.69,5.27-12.82,5.87-19.57.61-7,.52-14.08.51-21.09q0-11.15-.45-22.3-.87-22.29-3.48-44.46c-.81-7-1.66-14.47-5.82-20.35-3.87-5.47-10.11-9.79-17.09-9.07-6.61.69-11.72,4.86-15.27,10.29-2.91,4.44-4.22,9.54-5.66,14.58s-1.78,10.53-2.16,15.81l-1.39,19.38-.1,1.38a5,5,0,0,0,5,5,5.13,5.13,0,0,0,5-5l1.06-14.82.63-8.79c.06-.71.14-1.43.16-2.15,0-.05,0-.11,0-.16,0-.35,3.46,5.78-.11.85-.1-.14.16-1.1.18-1.28l.48-3.33a59.8,59.8,0,0,1,1.82-7.53c.35-1.24.67-2.48,1.1-3.7a13.68,13.68,0,0,1,.63-1.65c-.55,1.09-.13.33,0,.05s.35-.75.55-1.12a26.44,26.44,0,0,1,1.83-3.07c.15-.21.76-1.24.06-.12a5.89,5.89,0,0,1,.44-.55,20.42,20.42,0,0,1,1.42-1.52c.39-.38.92-.71,1.27-1.13-.74.87-.31.25.07,0l.56-.35c.28-.17.57-.33.86-.48l.3-.15c.39-.18.4-.18,0,0-.69,0,.08,0,.33-.1s.74-.19,1.11-.3c1-.3-.18.13-.18,0a9.81,9.81,0,0,1,1-.07h.72l.37,0c.56.06.49,0-.24,0,.42-.13,1.37.31,1.77.44a3.19,3.19,0,0,1,.69.25c-.63-.27-.7-.29-.19-.06l.65.34a6.47,6.47,0,0,1,1.55,1c-.73-.8-.24-.18,0,0s.47.41.69.63c.46.44.87.91,1.29,1.38.82.95-.55-.87.13.19.21.31.43.62.63.94a20,20,0,0,1,1,1.76c.06.12.63,1.46.22.42.11.27.22.55.32.82a34.74,34.74,0,0,1,1.32,4.69c.17.8.31,1.61.45,2.42.06.36.11.73.17,1.1,0,.15.22,1.63.06.44.23,1.72.42,3.45.62,5.17.39,3.45.74,6.9,1.07,10.36q1,10.61,1.62,21.25,1.2,21,.88,42.11c0,3.17-.09,6.34-.29,9.51-.09,1.51-.24,3-.4,4.52-.1.85.2-1.21,0,.16l-.21,1.27c-.15.84-.33,1.68-.53,2.51a33.43,33.43,0,0,1-1.25,4.06c-.1.26-.2.53-.31.79.45-1.08-.12.22-.19.36a23.45,23.45,0,0,1-1.14,2.09,6.89,6.89,0,0,1-1,1.52c.9-.78.07-.08-.13.15s-.32.38-.49.56c-.42.46-.85.9-1.3,1.32l-.83.74c-.92.82.85-.58-.15.12a32.06,32.06,0,0,1-3.29,2c-.66.35,1.14-.4,0,0l-1,.35c-.62.19-1.26.31-1.89.47s1.27-.08.1,0l-1,.06c-.42,0-1.42.16-1.77-.08.37.25.89.18.27,0-.35-.09-.7-.15-1-.25s-.52-.15-.77-.24l-.45-.16c-.5-.2-.4-.15.32.14,0-.17-1.21-.63-1.36-.72a10,10,0,0,0-1.27-.85c.9.31.55.43.07,0l-.45-.41c-.44-.43-.84-.89-1.25-1.35-.74-.81.65.94,0,0l-.37-.51c-.3-.43-.58-.88-.85-1.34s-.57-1-.84-1.56c-.12-.24-.24-.49-.35-.74l-.27-.6c.26.64.33.78.18.43a67.48,67.48,0,0,1-2.09-7c-.25-1.11-.45-2.22-.64-3.34-.09-.56-.15-1.11-.24-1.67.24,1.47,0,.32,0,0s-.09-.77-.13-1.15c-.72-6.33-1.36-12.67-1.86-19-.78-9.84-1.17-19.7-1-29.58,0-2.24.1-4.49.19-6.74a5,5,0,0,0-10,0Z" transform="translate(-243.9 -46.07)"/></g><path class="cls-23" d="M665,782c5.23,6.79,16.08,13.6,23.89,17.14h0c-14.46,3.19-30.08,18.46-39.77,29.66h0c8.54-12.33,15.92-31.9,16.13-46.9" transform="translate(-243.9 -46.07)"/><path class="cls-23" d="M343,800.43c11.76,5.41,25.55,16.63,34.56,25.93h0a83.7,83.7,0,0,1-14-43.59h0A46,46,0,0,1,341,799.84" transform="translate(-243.9 -46.07)"/><path class="cls-23" d="M505.19,868.27a171.42,171.42,0,0,1,4-30.67c5.39-6.12,10.31-7.76,18.3-9.39-9.16-3-12.8-5.77-17-9.81-1.36-20-1.45-43.39-4.85-64.28-3.4,20.89-4.5,44.29-5.86,64.28-4.2,4-7.84,6.77-17,9.81,8,1.63,12.91,3.27,18.3,9.39a172.35,172.35,0,0,1,4,30.67" transform="translate(-243.9 -46.07)"/><path class="cls-23" d="M505.81,868.27a176.06,176.06,0,0,1,3.64-28.84,5.37,5.37,0,0,1,.46-1.68,7.41,7.41,0,0,1,1-1.12,27.27,27.27,0,0,1,2.1-1.93,22,22,0,0,1,4.21-2.73,41.83,41.83,0,0,1,10.4-3.16c.64-.13.54-1,0-1.21a44.25,44.25,0,0,1-12.47-6c-.76-.56-1.5-1.16-2.21-1.78s-1.63-1.18-1.9-1.87a8.45,8.45,0,0,1-.13-2.13c0-.58-.07-1.15-.11-1.72-.09-1.53-.17-3.06-.25-4.58-.62-12-1-24-2-35.92-.55-6.59-1.27-13.15-2.33-19.67a.62.62,0,0,0-1.2,0c-1.92,11.8-3.05,23.72-3.95,35.64-.45,5.91-.83,11.82-1.21,17.73q-.27,4.26-.55,8.52a8.85,8.85,0,0,1-.14,2.13,3,3,0,0,1-.77.85c-.71.65-1.42,1.29-2.17,1.9-4,3.26-8.77,5.25-13.64,6.87-.54.19-.64,1.08,0,1.21A41.91,41.91,0,0,1,493,832a22.24,22.24,0,0,1,4.2,2.73,27.27,27.27,0,0,1,2.1,1.93,7.41,7.41,0,0,1,1.05,1.12,5.37,5.37,0,0,1,.46,1.68,176.06,176.06,0,0,1,3.64,28.84c0,.8,1.29.81,1.25,0a174.59,174.59,0,0,0-2.59-23.58c-.35-1.94-.74-3.89-1.14-5.83a3.8,3.8,0,0,0-.87-2.14c-.54-.6-1.11-1.19-1.7-1.75a24.33,24.33,0,0,0-6.77-4.55A46.77,46.77,0,0,0,483,827.6v1.21a46.16,46.16,0,0,0,12.66-6,42.23,42.23,0,0,0,4.21-3.57c.78-.74.64-1.47.71-2.53.11-1.58.21-3.16.31-4.74.79-12.17,1.52-24.35,2.72-36.49.7-7.08,1.55-14.15,2.69-21.18h-1.2a346.76,346.76,0,0,1,3.44,37.39c.3,6,.56,12.06.87,18.09l.24,4.36c0,.71.09,1.43.13,2.14a10.75,10.75,0,0,0,.14,2.13c.23.74,1.05,1.27,1.62,1.78s1.37,1.21,2.08,1.77c4.08,3.22,8.87,5.22,13.77,6.86V827.6c-5.65,1.17-11.1,2.71-15.56,6.55a13.87,13.87,0,0,0-3.12,3.14,10.88,10.88,0,0,0-.61,2.75c-.21,1-.4,2-.6,3q-1.06,5.65-1.78,11.36c-.56,4.59-.92,9.21-1.11,13.83,0,.8,1.22.8,1.25,0Z" transform="translate(-243.9 -46.07)"/></g><g id="Calque_18" data-name="Calque 18"><g id="Calque_19" data-name="Calque 19"><polygon class="cls-26" points="18.7 459.41 6 754.57 260.63 915.04 522.99 758.94 512.07 466.2 264.5 335.17 18.7 459.41"/><polygon class="cls-27" points="264.4 346 20.25 753.99 10.04 747.7 264.4 346"/><polygon class="cls-27" points="264.4 346 523.38 758.63 513.13 764.89 264.4 346"/><polygon class="cls-27" points="260.63 903.75 17.05 459.15 27.64 453.51 260.63 903.75"/><polygon class="cls-27" points="260.63 903.75 503.88 461.67 514.32 467.58 260.63 903.75"/><line class="cls-28" x1="145.54" y1="682.93" x2="384.87" y2="682.93"/><line class="cls-29" x1="315.26" y1="428.99" x2="498.08" y2="464.63"/><line class="cls-28" x1="213.16" y1="428.79" x2="24.78" y2="460.93"/></g></g></g></svg>