<?xml version="1.0" encoding="utf-8"?>
<!-- Generator: Adobe Illustrator 24.2.1, SVG Export Plug-In . SVG Version: 6.00 Build 0)  -->
<svg version="1.1" id="Calque_1" xmlns="http://www.w3.org/2000/svg" xmlns:xlink="http://www.w3.org/1999/xlink" x="0px" y="0px"
	 viewBox="0 0 1920 1080" style="enable-background:new 0 0 1920 1080;" xml:space="preserve">
<style type="text/css">
	.st0{opacity:0.56;}
	.st1{fill:#2E89BF;}
	.st2{fill:#5D49C7;}
	.st3{fill:#6045C7;}
	.st4{fill:#752ACB;}
	.st5{fill:#397AC1;}
	.st6{fill:#5357C5;}
</style>
<g class="st0">
	<path class="st1" d="M576.9,885.5l-80,100.9c-8.1,10.2-21,15.3-33.9,13.4l-127.4-18.8c-12.9-1.9-23.8-10.5-28.6-22.7l-47.4-119.7
		c-4.8-12.1-2.8-25.9,5.3-36.1l80-100.9c8.1-10.2,21-15.3,33.9-13.4l127.4,18.8c12.9,1.9,23.8,10.5,28.6,22.7l47.4,119.7
		C587,861.5,585,875.3,576.9,885.5z"/>
</g>
<g class="st0">
	<path class="st2" d="M1959.5,1055.9l-69.7,63.6c-9.6,8.8-23.2,11.8-35.6,7.8l-89.9-28.5c-12.4-3.9-21.8-14.2-24.6-26.9l-20.3-92.1
		c-2.8-12.7,1.4-26,11-34.8l69.7-63.6c9.6-8.8,23.2-11.8,35.6-7.8l89.9,28.5c12.4,3.9,21.8,14.2,24.6,26.9l20.3,92.1
		C1973.3,1033.9,1969.1,1047.1,1959.5,1055.9z"/>
</g>
<g class="st0">
	<path class="st3" d="M1248,479.8l-72.4,91.3c-8.1,10.2-21,15.3-33.9,13.4l-115.3-17c-12.9-1.9-23.8-10.5-28.6-22.7L955,436.5
		c-4.8-12.1-2.8-25.9,5.3-36.1l72.4-91.3c8.1-10.2,21-15.3,33.9-13.4l115.3,17c12.9,1.9,23.8,10.5,28.6,22.7l42.9,108.3
		C1258.1,455.8,1256.1,469.6,1248,479.8z"/>
</g>
<g class="st0">
	<path class="st4" d="M1979.6,313.7l-114.1,59.7c-11.5,6-25.4,5.5-36.4-1.5L1720.4,303c-11-7-17.4-19.3-16.9-32.3l5.3-128.6
		c0.5-13,8-24.8,19.5-30.8l114.1-59.7c11.5-6,25.4-5.5,36.4,1.5l108.7,68.9c11,7,17.4,19.3,16.9,32.3l-5.3,128.6
		C1998.6,296,1991.2,307.7,1979.6,313.7z"/>
</g>
<g class="st0">
	<path class="st5" d="M164.9,456l-80,100.9c-8.1,10.2-21,15.3-33.9,13.4l-127.4-18.8c-12.9-1.9-23.8-10.5-28.6-22.7l-47.4-119.7
		c-4.8-12.1-2.8-25.9,5.3-36.1l80-100.9c8.1-10.2,21-15.3,33.9-13.4l127.4,18.8c12.9,1.9,23.8,10.5,28.6,22.7l47.4,119.7
		C175,432,173,445.8,164.9,456z"/>
</g>
<g class="st0">
	<path class="st6" d="M756.9,98l-80,100.9c-8.1,10.2-21,15.3-33.9,13.4l-127.4-18.8c-12.9-1.9-23.8-10.5-28.6-22.7L439.7,51.1
		C435,39,437,25.2,445.1,15l80-100.9c8.1-10.2,21-15.3,33.9-13.4l127.4,18.8c12.9,1.9,23.8,10.5,28.6,22.7l47.4,119.7
		C767,74,765,87.8,756.9,98z"/>
</g>
</svg>
