<svg id="Calque_1" data-name="Calque 1" xmlns="http://www.w3.org/2000/svg" viewBox="0 0 795.82 883.31"><defs><style>.cls-1{fill:none;stroke:#fff;stroke-miterlimit:10;stroke-width:30px;}</style></defs><path class="cls-1" d="M884.47,663.24V336.76A100.18,100.18,0,0,0,834.38,250L551.65,86.77a100.21,100.21,0,0,0-100.18,0L168.74,250a100.19,100.19,0,0,0-50.09,86.76V663.24A100.18,100.18,0,0,0,168.74,750L451.47,913.24a100.21,100.21,0,0,0,100.18,0L834.38,750A100.2,100.2,0,0,0,884.47,663.24Z" transform="translate(-103.65 -58.35)"/><circle class="cls-1" cx="397.91" cy="360.97" r="157.38"/><path class="cls-1" d="M501.56,576.69c-224.56,2.53-205.2,247-205.2,247" transform="translate(-103.65 -58.35)"/><path class="cls-1" d="M709.77,823.67s2.34-247-208.21-247" transform="translate(-103.65 -58.35)"/></svg>