<?xml version="1.0" encoding="utf-8"?>
<!-- Generator: Adobe Illustrator 24.2.1, SVG Export Plug-In . SVG Version: 6.00 Build 0)  -->
<svg version="1.1" id="Calque_1" xmlns="http://www.w3.org/2000/svg" xmlns:xlink="http://www.w3.org/1999/xlink" x="0px" y="0px"
	 viewBox="0 0 1000 1000" style="enable-background:new 0 0 1000 1000;" xml:space="preserve">
<style type="text/css">
	.st0{fill:none;stroke:#FFFFFF;stroke-width:10;stroke-miterlimit:10;}
</style>
<path class="st0" d="M884.47,663.24V336.76c0-35.79-19.09-68.86-50.09-86.76L551.65,86.77c-30.99-17.89-69.18-17.89-100.18,0
	L168.74,250.01c-30.99,17.89-50.09,50.97-50.09,86.76v326.47c0,35.79,19.09,68.86,50.09,86.76l282.73,163.24
	c30.99,17.89,69.18,17.89,100.18,0l282.73-163.24C865.37,732.1,884.47,699.03,884.47,663.24z"/>
<circle class="st0" cx="501.56" cy="419.32" r="157.38"/>
<path class="st0" d="M501.56,576.69c-224.56,2.53-205.2,246.98-205.2,246.98"/>
<path class="st0" d="M709.77,823.67c0,0,2.34-246.98-208.21-246.98"/>
</svg>
