<svg id="Rendu" xmlns="http://www.w3.org/2000/svg" xmlns:xlink="http://www.w3.org/1999/xlink" viewBox="0 0 806.26 350.68"><defs><style>.cls-1{fill:#13131f;stroke:#13131f;stroke-linejoin:round;stroke-width:6px;}.cls-2{fill:#fcf9da;}.cls-3{fill:#b5c0ba;}.cls-4{fill:url(#Dégradé_sans_nom_268);}.cls-5{fill:#ffae89;}.cls-6{fill:url(#Dégradé_sans_nom_268-2);}</style><radialGradient id="Dégradé_sans_nom_268" cx="325.38" cy="658.26" r="8.81" gradientTransform="translate(-161.97 -529.43) scale(1.18 1.24)" gradientUnits="userSpaceOnUse"><stop offset="0" stop-color="#8e1e23"/><stop offset="1" stop-color="#be4d25"/></radialGradient><radialGradient id="Dégradé_sans_nom_268-2" cx="614.15" cy="658.77" r="8.81" xlink:href="#Dégradé_sans_nom_268"/></defs><g id="Texte"><g id="Calque_33" data-name="Calque 33"><path class="cls-1" d="M116.8,322.85s182.67,5,199.06,0-6.82,51.5-6.82,51.5c36-5.54,61-3.3,77.6,0a237.89,237.89,0,0,0,24.47,4.09c21.33,2.33,27.55-.19,48,.26a305,305,0,0,1,57.71,6.93c23.33,5.35,28.78,10,42.06,7.69,14.82-2.62,14.16-9.53,32.13-17,17.15-7.16,47-13.06,68.42-5.55,5.24,1.84,14.33,6,24.11,2.83,4.28-1.39,6.32-3.42,10.51-3.6,7.15-.3,13.18,5.08,17.16,9.67a97.46,97.46,0,0,0-4.54-20.4c-3.58-11.11-9.78-24.05-20.25-31.36,0,0,176.8,7.69,205.28-.77,0,0-31.55,224,8.46,275.91,0,0-142.35-18.77-171.59-5,0,0-23.9,66.88-137.76,69.19H363.13s-64.73.88-108.59-64.2c0,0-23.86-12.65-154.67,4.6C99.87,607.62,151.43,559.67,116.8,322.85Z" transform="translate(-96.87 -319.54)"/></g><g id="FORGE"><g id="Calque_7" data-name="Calque 7"><g id="Calque_14" data-name="Calque 14"><path class="cls-2" d="M139.2,582c12.84-10.88,14.1-29.33,14.3-46.16q.67-56.67,1.34-113.32c.17-13.57.33-27.16-.48-40.7-.89-14.73-3.35-30.37-13.17-41.38l-.81-1.1s104.6,8.85,156.1,1.12l-.89,3a66.33,66.33,0,0,0-20,53.18l.69,2.82A34.73,34.73,0,0,0,253,380a64.64,64.64,0,0,0-10.66-1.37Q217.9,377,193.4,377.57l2.23,2.43c5.26,3.54,5.77,10.95,5.74,17.28q-.06,15.57-.13,31.13l1.25-.61c9,.79,18,2.31,27,1.73s18.32-3.57,24.32-10.33l4.35-.87a244.77,244.77,0,0,0-3.64,56.17l-3.29.86c-2.3-8.77-11.92-13.71-20.94-14.64s-18.11,1-27.18.63l.09.1c-2.79,29.73-5.55,59.92,0,89.26C204.77,559,207.65,568,215,572l-3.66-1.17c-24.15,3.12-48.32,6.25-72.16,11.2Z" transform="translate(-96.87 -319.54)"/><path class="cls-2" d="M345.23,389.93c-45.46.11-68,37-68,82.68s19.21,82.67,68,82.67c46.42,0,68-37,68-82.67S390.64,389.84,345.23,389.93Zm.52,132c-28,0-28-23.19-28-51.79s3.09-51.78,28-51.78c24.36,0,27.95,23.18,27.95,51.78S369.09,521.93,345.75,521.93Z" transform="translate(-96.87 -319.54)"/><path class="cls-2" d="M540.48,514.19c-5.2-8.49-11.81-17.65-17.87-25.56l2-1.54c8.2-5,13.82-13.54,16.4-22.77s2.36-19.05.74-28.49c-1.32-7.61-3.68-15.35-8.89-21.05-8.13-8.87-21.14-10.86-33.11-12.06a795.5,795.5,0,0,0-80.35-4l.6.41c5.92,4.44,9.43,11.51,11,18.75s1.4,14.72,1.22,22.12l-2.28,95c-.16,6.31-.68,13.43-5.52,17.47l.07,0a41.16,41.16,0,0,1,8.81-.37l42.51,1.23,1-.72c-4.16-4.26-6.64-9.93-8-15.73s-1.57-11.78-1.81-17.73c-.26-6.29-.88-15.4-1.14-21.69,22.3,19.75,47.4,39.73,72.12,56.34,10.1,6.78,21.06,13.18,33.19,14.15l.24-1.2C558.13,551.39,551.13,531.6,540.48,514.19Zm-33.12-53.38c-3.47,6.43-10.76,9.92-17.93,11.27s-15.79.92-23,1.82l-.72,0c.22-13.34.9-35.68,1.31-49h.26c6-.23,12.33,0,18.32.34,7.46.45,15.78,1.87,20.2,7.9,2.36,3.24,3.2,7.33,3.66,11.32C510.06,450,510,455.9,507.36,460.81Z" transform="translate(-96.87 -319.54)"/><path class="cls-2" d="M710,527.89c-1-8.63-.91-19.4-1.54-28.07a67.54,67.54,0,0,1,.07-14.84,38.77,38.77,0,0,1,10.19-20.41c-27.46-.76-56.9-.94-84.36-.49l-.24.11c0,5.1.55,10,.59,15.11,0,3,.62,8.12-.56,10.87a308.12,308.12,0,0,1,38.44.24q.15,9.57-.54,19.12l-.08,0c-12.23,8.68-20,11.75-34.89,11.56-9.7.22-20.91-5-26.32-13.47s-7.13-18.77-8-28.79a130.67,130.67,0,0,1,.45-27.82c1.84-12.15,11.85-21.75,23.08-26.73a57,57,0,0,1,62,10.4l1,0q-.94-20.93-.9-41.89v-1.3c-3.14,3.14-7.56,5.89-12,6.25-3.76.3-7.29-1.61-10.75-3.1-10.08-4.32-21.4-5.31-32.29-4s-21.4,4.94-31.4,9.46c-3.82,1.73-7.72,3.44-11,6a71.74,71.74,0,0,0-15.18,16.08c-4.84,6.79-8.93,12.93-11,22.72-3.22,13.25-2.07,27.15-.28,40.67a120.36,120.36,0,0,0,2.89,15.67,69.62,69.62,0,0,0,61,51.12c12.17.46,24.55.72,36.3-2.45A126.61,126.61,0,0,0,679,544.9c11-4.42,22.25-9,31-17Z" transform="translate(-96.87 -319.54)"/><path class="cls-2" d="M721.39,571.38c4.71-6.73,12.8-10.84,16.39-18.23,1.86-3.84,2.31-8.19,2.63-12.44,1.07-14.13,1.09-28.32,1.1-42.5l.12-104c0-8.94,0-18-2.46-26.62s-6.79-18.14-14.83-22.06c50.3,2.51,100.77,2.68,150.91-2l1-.8c-4,3.13-8,6.4-10.56,10.73-2.82,4.7-3.77,10.28-4.26,15.74a112,112,0,0,0,.88,27.2c-3.89-7.11-11.47-12.73-19-15.73-8.46-3.36-17.87-3.32-26.95-2.62a168.3,168.3,0,0,1-29.27-.23c-.29,16,.17,34.49,1.19,50.45l-.09.39a173.5,173.5,0,0,0,20.86,2c5.37.2,10.82.14,16-1.26,7.15-1.93,14.53-6.68,20-11.64L842.75,475l-.09-.25c-2.4-6.05-8.32-10.18-14.58-12s-12.91-1.53-19.41-1.08-14.48,1.28-20.92.26a574.69,574.69,0,0,0,.91,72l.08-.1c9.72,0,19.36,1.82,29.08,2.2s19.95-.9,27.9-6.51c3-2.12,6.14-3.65,8.65-6.33,3.4-3.62,8.66-8.48,11.93-12.22-1.14,12.21-2.28,24.51-1.3,36.74s3.54,26,10.45,36.12a358.83,358.83,0,0,0-52.08-8.75c-4.89-.44-9.79-.77-14.69-1.09C780.42,572.12,749.7,570.36,721.39,571.38Z" transform="translate(-96.87 -319.54)"/></g></g><g id="ombre"><path class="cls-3" d="M215,572l-3.67-1.18c-24.14,3.13-48.32,6.25-72.15,11.21,12.83-10.89,14.08-29.34,14.29-46.17q.27-23.35.56-46.71,23.6-2.91,47.22-5.51c-1.71,22.48-2.23,45,1.94,67.09C204.74,559,207.62,568,215,572Z" transform="translate(-96.87 -319.54)"/><path class="cls-3" d="M540.45,514.25c10.65,17.41,17.65,37.2,31,52.65l-.24,1.2c-12.12-1-23.09-7.36-33.19-14.14-24.72-16.62-49.81-36.6-72.11-56.35.25,6.3.87,15.41,1.12,21.69.25,6,.5,11.93,1.82,17.73s3.79,11.47,8,15.73l-1,.72-42.5-1.23a41.22,41.22,0,0,0-8.82.37l-.07,0c4.84-4.05,5.36-11.17,5.52-17.48q.66-27,1.3-54c22.92,5.21,45.45,12.71,68.88,14.62a193.34,193.34,0,0,0,27.86.06C532.34,501.81,536.75,508.2,540.45,514.25Z" transform="translate(-96.87 -319.54)"/><path class="cls-3" d="M710,528c-8.76,8-20,12.57-31,17a129.46,129.46,0,0,1-14.38,5.13c-11.75,3.16-24.13,2.9-36.3,2.44a69.62,69.62,0,0,1-61-51.12,93.61,93.61,0,0,1-1.95-9.24c10.34-1.08,20.7-2,31.07-2.06,2.6,0,5.21,0,7.81.07a49.71,49.71,0,0,0,6.5,17.51c5.42,8.48,16.63,13.7,26.32,13.48,14.93.19,22.67-2.89,34.9-11.57l.08,0q.42-5.79.53-11.56c12,1.67,24,3.09,36,3.65C709,510,709,519.9,710,528Z" transform="translate(-96.87 -319.54)"/><path class="cls-3" d="M875.43,583.87a359.2,359.2,0,0,0-52.09-8.75c-4.89-.44-9.78-.77-14.69-1.08-28.26-1.87-59-3.62-87.29-2.61,4.71-6.72,12.8-10.84,16.39-18.23,1.86-3.84,2.31-8.18,2.63-12.43,1-13.12,1.07-26.29,1.1-39.44,10.06-.54,20.12-1.4,30.17-2.24l15.41-1.31q.21,18.11,1.57,36.19l.09-.1c9.72,0,19.35,1.82,29.06,2.21s20-.91,27.91-6.52c3-2.12,6.14-3.66,8.65-6.33,3.4-3.62,8.66-8.48,11.93-12.22-1.14,12.22-2.28,24.51-1.3,36.74S868.51,573.73,875.43,583.87Z" transform="translate(-96.87 -319.54)"/><path class="cls-3" d="M215,572l-3.67-1.18c-24.14,3.13-48.32,6.25-72.15,11.21,12.83-10.89,14.08-29.34,14.29-46.17q.27-23.35.56-46.71,23.6-2.91,47.22-5.51c-1.71,22.48-2.23,45,1.94,67.09C204.74,559,207.62,568,215,572Z" transform="translate(-96.87 -319.54)"/><path class="cls-3" d="M373.66,473.25c-.33,27.17-5.43,48.73-27.94,48.73-27,0-27.93-21.58-28-48.78-13.52.62-27,1.61-40.49,2.79.92,44.11,20.36,79.33,67.92,79.33,44.76,0,66.39-34.38,67.89-77.76A365.28,365.28,0,0,0,373.66,473.25Z" transform="translate(-96.87 -319.54)"/><path class="cls-3" d="M540.45,514.25c-3.7-6.05-8.11-12.44-12.53-18.46a193.34,193.34,0,0,1-27.86-.06c-23.43-1.91-46-9.41-68.88-14.62q-.65,27-1.3,54c-.16,6.31-.68,13.43-5.52,17.48l.07,0a41.22,41.22,0,0,1,8.82-.37l42.5,1.23,1-.72c-4.17-4.26-6.64-9.92-8-15.73s-1.57-11.78-1.82-17.73c-.25-6.28-.87-15.39-1.12-21.69,22.3,19.75,47.39,39.73,72.11,56.35,10.1,6.78,21.07,13.17,33.19,14.14l.24-1.2C558.1,551.45,551.1,531.66,540.45,514.25Z" transform="translate(-96.87 -319.54)"/><path class="cls-3" d="M710,528c-8.76,8-20,12.57-31,17a129.46,129.46,0,0,1-14.38,5.13c-11.75,3.16-24.13,2.9-36.3,2.44a69.62,69.62,0,0,1-61-51.12,93.61,93.61,0,0,1-1.95-9.24c10.34-1.08,20.7-2,31.07-2.06,2.6,0,5.21,0,7.81.07a49.71,49.71,0,0,0,6.5,17.51c5.42,8.48,16.63,13.7,26.32,13.48,14.93.19,22.67-2.89,34.9-11.57l.08,0q.42-5.79.53-11.56c12,1.67,24,3.09,36,3.65C709,510,709,519.9,710,528Z" transform="translate(-96.87 -319.54)"/><path class="cls-3" d="M875.43,583.87a359.2,359.2,0,0,0-52.09-8.75c-4.89-.44-9.78-.77-14.69-1.08-28.26-1.87-59-3.62-87.29-2.61,4.71-6.72,12.8-10.84,16.39-18.23,1.86-3.84,2.31-8.18,2.63-12.43,1-13.12,1.07-26.29,1.1-39.44,10.06-.54,20.12-1.4,30.17-2.24l15.41-1.31q.21,18.11,1.57,36.19l.09-.1c9.72,0,19.35,1.82,29.06,2.21s20-.91,27.91-6.52c3-2.12,6.14-3.66,8.65-6.33,3.4-3.62,8.66-8.48,11.93-12.22-1.14,12.22-2.28,24.51-1.3,36.74S868.51,573.73,875.43,583.87Z" transform="translate(-96.87 -319.54)"/></g></g><g id="JDR"><g id="Calque_17" data-name="Calque 17"><path class="cls-3" d="M391.79,624.13c-.16,1.74-2,3.08-3.94,3.72a9.2,9.2,0,0,1-4.71.35c-2.31-.49-4.06-2-5.66-3.5l-.08.07a82.34,82.34,0,0,1-9.13,6.85l-.08.16c3.62,4.33,9.71,7.15,16,7.43a23.35,23.35,0,0,0,16.87-6c2.17-2.09,3.75-4.72,3.72-7.48h0c.49-16.17.25-31.76-.12-47.93h0q-5.81-.15-11.63-.07l-.56.06c.14,15.32-.07,30.68-.74,46Z" transform="translate(-96.87 -319.54)"/><path class="cls-3" d="M507.51,586.08c-2-4.58-3.75-5.82-8.88-7.09s-11-1.29-16.68-1.3c-4.79,0-10.06.52-14.84.52.69,19.58,0,39.65-.88,59.23a224,224,0,0,0,25.13-.46,38.67,38.67,0,0,0,9.81-1.65c5.1-1.84,6.27-3.85,7.59-7A226.13,226.13,0,0,0,507.51,586.08Zm-10.88,35.3c-.55,2.1-1,3.43-3.15,4.65a10.69,10.69,0,0,1-4.08,1.1,57.92,57.92,0,0,1-10.45.31c.36-13,.65-26.37.36-39.4,2,0,4.18-.34,6.17-.34a19.07,19.07,0,0,1,6.94.86,5.56,5.56,0,0,1,3.69,4.72A239.52,239.52,0,0,1,496.63,621.38Z" transform="translate(-96.87 -319.54)"/><path class="cls-3" d="M617,638.26A144.77,144.77,0,0,0,608,621l-5-8.73-.05-.26A22.13,22.13,0,0,0,609,609.5c3.17-2.13,4.49-5.64,5.07-9a29.86,29.86,0,0,0,.14-9.1c-.44-3.16-.46-5.86-3.15-8.12-3-2.85-7.48-4.46-12-5.16a75.42,75.42,0,0,0-13.7-.44c-4.77.14-10,.2-14.8.34-.07,19.86-.34,40.15-.41,60,4.08.08,9-.06,13.09-.19q.39-12.3,0-24.61l.21-.08,5.78.06c4.76,8.25,9.12,16.81,13,25.35a141.15,141.15,0,0,1,14.69-.1Zm-16.57-39.6a6.43,6.43,0,0,1-2.87,3.51,10.72,10.72,0,0,1-4.95.85c-3,0-6.77,0-9.77-.24,0-4.91.23-10.14.61-15a78,78,0,0,1,13.35,1,5,5,0,0,1,2.29,1.19,4.3,4.3,0,0,1,1.62,1.9A10.56,10.56,0,0,1,600.4,598.66Z" transform="translate(-96.87 -319.54)"/></g><ellipse class="cls-4" cx="222.47" cy="288.29" rx="10.98" ry="10.32"/><path class="cls-5" d="M319.68,618.26a10.78,10.78,0,0,1-6.07-1.43,10.6,10.6,0,0,1-4.29-4.75,11.11,11.11,0,0,1-.88-3.15,12.16,12.16,0,0,1,.11-3.3,11.58,11.58,0,0,1,1.12-3.11,12.32,12.32,0,0,1,2-2.64,11.5,11.5,0,0,1,5.82-3,12.88,12.88,0,0,1,3.28-.11,11.46,11.46,0,0,1,3.16.85,11.19,11.19,0,0,1,2.76,1.71,11.89,11.89,0,0,1,2.11,2.43,11.57,11.57,0,0,1,1.24,2.93,10.29,10.29,0,0,1,.28,3.12,10.53,10.53,0,0,0-6.82-9.11A10.39,10.39,0,0,0,312.71,601a9.82,9.82,0,0,0-2.31,10.67A10.76,10.76,0,0,0,319.68,618.26Z" transform="translate(-96.87 -319.54)"/><ellipse class="cls-6" cx="563.66" cy="288.92" rx="10.98" ry="10.32"/><path class="cls-5" d="M660.86,618.89a10.68,10.68,0,0,1-6.06-1.42,11.63,11.63,0,0,1-2.5-2,10.6,10.6,0,0,1-2.68-5.87,12.11,12.11,0,0,1,.12-3.29,11.52,11.52,0,0,1,1.12-3.12,12.49,12.49,0,0,1,2-2.64,11.54,11.54,0,0,1,5.81-3,13,13,0,0,1,3.29-.1,11,11,0,0,1,5.92,2.56,11.93,11.93,0,0,1,2.11,2.43,11.79,11.79,0,0,1,1.24,2.93,10.55,10.55,0,0,1,.28,3.11,10.51,10.51,0,0,0-6.83-9.1,10.36,10.36,0,0,0-10.78,2.23,9.83,9.83,0,0,0-2.32,10.67A10.77,10.77,0,0,0,660.86,618.89Z" transform="translate(-96.87 -319.54)"/></g></g></svg>