<svg id="Rendu" xmlns="http://www.w3.org/2000/svg" xmlns:xlink="http://www.w3.org/1999/xlink" viewBox="0 0 666.71 878.96"><defs><style>.cls-1,.cls-32{fill:#13131f;}.cls-1,.cls-31,.cls-33,.cls-34{stroke:#13131f;}.cls-1,.cls-31{stroke-linejoin:round;}.cls-1{stroke-width:6px;}.cls-2{fill:#fcf9da;}.cls-3{fill:#b5c0ba;}.cls-4{fill:url(#Dégradé_sans_nom_268);}.cls-5{fill:#ffae89;}.cls-6{fill:url(#Dégradé_sans_nom_268-2);}.cls-7{fill:#532d52;stroke:#532d52;}.cls-12,.cls-14,.cls-15,.cls-20,.cls-21,.cls-25,.cls-33,.cls-34,.cls-7{stroke-miterlimit:10;}.cls-8{fill:url(#Dégradé_sans_nom_558);}.cls-9{fill:url(#Dégradé_sans_nom_558-2);}.cls-10{fill:url(#Dégradé_sans_nom_558-3);}.cls-11{fill:url(#Dégradé_sans_nom_558-4);}.cls-12{stroke:#8c317a;fill:url(#Dégradé_sans_nom_493);}.cls-13{fill:#af5c7a;}.cls-14{fill:#ffdbff;stroke:#ffdbf4;}.cls-15{fill:#8a3955;stroke:#8a3955;}.cls-16{fill:#ffcad7;}.cls-17{fill:#fff;}.cls-18{fill:#732d60;}.cls-19{fill:#2596be;}.cls-20{fill:#0f4154;}.cls-20,.cls-21,.cls-25{stroke:#1e7898;}.cls-21{fill:#1e6987;}.cls-22{fill:#0f3c4c;}.cls-23{fill:#92cbdf;}.cls-24,.cls-25{fill:#66bdd6;}.cls-26{fill:#77bacb;}.cls-27{fill:#77a9c1;}.cls-28{fill:#fbfade;}.cls-29{fill:#181927;}.cls-30{fill:#0bbea4;}.cls-31,.cls-33,.cls-34{fill:none;}.cls-31{stroke-width:12px;}.cls-33{stroke-width:4px;}.cls-34{stroke-width:3px;}</style><radialGradient id="Dégradé_sans_nom_268" cx="341.82" cy="877.78" r="7.28" gradientTransform="translate(-219.67 -263.48) scale(1.18 1.24)" gradientUnits="userSpaceOnUse"><stop offset="0" stop-color="#8e1e23"/><stop offset="1" stop-color="#be4d25"/></radialGradient><radialGradient id="Dégradé_sans_nom_268-2" cx="580.23" cy="878.2" r="7.28" xlink:href="#Dégradé_sans_nom_268"/><radialGradient id="Dégradé_sans_nom_558" cx="524.5" cy="129.39" r="11.64" gradientTransform="translate(-282.12 -43.75) scale(1.63 1.29)" gradientUnits="userSpaceOnUse"><stop offset="0" stop-color="#6c2d4d"/><stop offset="1" stop-color="#843782"/></radialGradient><radialGradient id="Dégradé_sans_nom_558-2" cx="514.58" cy="105.22" r="9.54" xlink:href="#Dégradé_sans_nom_558"/><radialGradient id="Dégradé_sans_nom_558-3" cx="418.85" cy="134.16" r="12.15" xlink:href="#Dégradé_sans_nom_558"/><radialGradient id="Dégradé_sans_nom_558-4" cx="415.18" cy="166.42" r="9.25" xlink:href="#Dégradé_sans_nom_558"/><linearGradient id="Dégradé_sans_nom_493" x1="483.19" y1="337.43" x2="481.94" y2="35.28" gradientUnits="userSpaceOnUse"><stop offset="0" stop-color="#5a196d"/><stop offset="0.66" stop-color="#98393d"/><stop offset="1" stop-color="#ba4a23"/></linearGradient></defs><g id="Texte"><g id="Calque_33" data-name="Calque 33"><path class="cls-1" d="M171.54,645.23s150.82,4.11,164.35,0-5.63,42.53-5.63,42.53c29.69-4.58,50.37-2.73,64.07,0a197.37,197.37,0,0,0,20.2,3.37c17.61,1.92,22.74-.15,39.6.21a251.34,251.34,0,0,1,47.65,5.73c19.26,4.41,23.76,8.28,34.73,6.34,12.23-2.16,11.69-7.86,26.52-14,14.16-5.91,38.78-10.78,56.49-4.58,4.33,1.51,11.83,4.94,19.91,2.33,3.53-1.15,5.22-2.82,8.68-3,5.9-.25,10.88,4.19,14.17,8a81.52,81.52,0,0,0-3.75-16.84c-3-9.17-8.08-19.86-16.73-25.89,0,0,146,6.35,169.48-.64,0,0-26,185,7,227.8,0,0-117.53-15.5-141.67-4.12,0,0-19.73,55.22-113.73,57.12h-188s-53.44.73-89.65-53c0,0-19.69-10.45-127.69,3.8C157.57,880.35,200.13,840.76,171.54,645.23Z" transform="translate(-154.57 -53.59)"/></g><g id="FORGE"><g id="Calque_7" data-name="Calque 7"><g id="Calque_14" data-name="Calque 14"><path class="cls-2" d="M190,859.2c10.6-9,11.63-24.22,11.8-38.11L203,727.53c.14-11.2.27-22.42-.4-33.6-.73-12.17-2.76-25.07-10.87-34.17l-.67-.91s86.36,7.31,128.88.93l-.73,2.52a54.73,54.73,0,0,0-16.49,43.91l.56,2.33A28.68,28.68,0,0,0,284,692.42a53.08,53.08,0,0,0-8.81-1.12q-20.16-1.38-40.39-.88l1.84,2c4.35,2.92,4.77,9,4.75,14.27q-.06,12.84-.11,25.69l1-.5c7.44.66,14.87,1.91,22.31,1.43s15.12-2.95,20.08-8.53l3.59-.71a201.82,201.82,0,0,0-3,46.37l-2.72.71c-1.9-7.24-9.84-11.32-17.29-12.09s-15,.83-22.44.52l.07.09c-2.3,24.54-4.58,49.47,0,73.69,1.28,6.81,3.66,14.25,9.75,17.56l-3-1c-19.93,2.57-39.89,5.15-59.57,9.24Z" transform="translate(-154.57 -53.59)"/><path class="cls-2" d="M360.14,700.62c-37.53.09-56.11,30.56-56.11,68.26s15.86,68.25,56.11,68.25c38.33,0,56.12-30.56,56.12-68.25S397.63,700.54,360.14,700.62Zm.43,109c-23.09,0-23.09-19.15-23.09-42.76s2.55-42.75,23.09-42.75c20.11,0,23.08,19.14,23.08,42.75S379.84,809.6,360.57,809.6Z" transform="translate(-154.57 -53.59)"/><path class="cls-2" d="M521.34,803.21c-4.3-7-9.75-14.58-14.75-21.1l1.62-1.28c6.77-4.09,11.41-11.18,13.55-18.79s1.94-15.73.6-23.53c-1.08-6.28-3-12.67-7.34-17.38-6.7-7.32-17.45-9-27.33-10a659.06,659.06,0,0,0-66.34-3.27l.49.34c4.89,3.66,7.79,9.5,9.09,15.48s1.15,12.15,1,18.26l-1.89,78.47c-.13,5.2-.56,11.08-4.56,14.42l.06,0a34.05,34.05,0,0,1,7.28-.31l35.09,1,.85-.6a26.88,26.88,0,0,1-6.57-13,80.69,80.69,0,0,1-1.5-14.64c-.21-5.2-.72-12.72-.93-17.91A582.08,582.08,0,0,0,519.31,836c8.34,5.6,17.39,10.89,27.4,11.68l.2-1C535.91,833.92,530.13,817.58,521.34,803.21ZM494,759.14c-2.87,5.3-8.89,8.18-14.81,9.3s-13,.76-19,1.51h-.6c.19-11,.75-29.46,1.09-40.47h.21c4.95-.19,10.18,0,15.12.28,6.17.38,13,1.54,16.68,6.53,2,2.67,2.65,6.05,3,9.34C496.23,750.21,496.19,755.08,494,759.14Z" transform="translate(-154.57 -53.59)"/><path class="cls-2" d="M661.29,814.52c-.84-7.12-.75-16-1.27-23.18a55.13,55.13,0,0,1,.06-12.25,32,32,0,0,1,8.41-16.85c-22.67-.63-47-.78-69.65-.4l-.2.09c0,4.21.45,8.26.49,12.48,0,2.46.51,6.7-.46,9a252.74,252.74,0,0,1,31.74.21c.08,5.26-.07,10.53-.45,15.78l-.07,0c-10.1,7.16-16.49,9.7-28.81,9.54-8,.18-17.26-4.12-21.73-11.12s-5.88-15.5-6.59-23.77a108.87,108.87,0,0,1,.38-23c1.52-10,9.78-18,19.06-22.07a47.06,47.06,0,0,1,51.16,8.59l.83,0q-.78-17.28-.74-34.59v-1.08c-2.6,2.6-6.25,4.87-9.9,5.16-3.11.26-6-1.32-8.88-2.55C616.35,701,607,700.17,598,701.28s-17.67,4.08-25.92,7.81a43.66,43.66,0,0,0-9.1,5,59.12,59.12,0,0,0-12.53,13.27c-4,5.6-7.38,10.67-9.12,18.76-2.67,10.94-1.72,22.42-.23,33.58a97.86,97.86,0,0,0,2.38,12.94,57.47,57.47,0,0,0,50.37,42.2c10,.38,20.27.6,30-2a104.73,104.73,0,0,0,11.87-4.23c9.07-3.66,18.36-7.45,25.59-14.05Z" transform="translate(-154.57 -53.59)"/><path class="cls-2" d="M670.7,850.43c3.89-5.56,10.57-9,13.53-15.06,1.54-3.16,1.91-6.76,2.17-10.26.89-11.67.9-23.39.92-35.09l.09-85.91c0-7.38,0-14.88-2-22s-5.61-15-12.24-18.21c41.52,2.07,83.2,2.21,124.59-1.68l.84-.66c-3.27,2.58-6.58,5.29-8.72,8.86-2.33,3.88-3.12,8.49-3.52,13a92.36,92.36,0,0,0,.73,22.47c-3.22-5.88-9.48-10.52-15.7-13-7-2.78-14.76-2.74-22.25-2.16a139.35,139.35,0,0,1-24.17-.2c-.23,13.21.15,28.47,1,41.65l-.08.33a146.31,146.31,0,0,0,17.22,1.68,44.37,44.37,0,0,0,13.22-1c5.91-1.59,12-5.51,16.54-9.61l-1.94,47.25-.07-.2c-2-5-6.86-8.41-12-9.88s-10.66-1.27-16-.89-12,1-17.27.21a475.52,475.52,0,0,0,.75,59.45l.07-.09c8,0,16,1.51,24,1.82s16.48-.74,23-5.38c2.47-1.74,5.07-3,7.14-5.22,2.81-3,7.16-7,9.85-10.09-.94,10.09-1.88,20.23-1.07,30.33s2.92,21.46,8.63,29.82a298.29,298.29,0,0,0-43-7.22c-4-.36-8.08-.63-12.13-.9C719.44,851,694.07,849.58,670.7,850.43Z" transform="translate(-154.57 -53.59)"/></g></g><g id="ombre"><path class="cls-3" d="M252.62,851l-3-1c-19.93,2.58-39.89,5.16-59.57,9.25,10.6-9,11.63-24.22,11.8-38.12q.23-19.27.46-38.56,19.49-2.4,39-4.55c-1.41,18.56-1.84,37.17,1.6,55.39C244.15,840.21,246.53,847.66,252.62,851Z" transform="translate(-154.57 -53.59)"/><path class="cls-3" d="M521.32,803.26c8.79,14.37,14.57,30.71,25.57,43.47l-.2,1c-10-.8-19.06-6.08-27.4-11.68a582.18,582.18,0,0,1-59.54-46.52c.21,5.2.72,12.72.93,17.91a80.6,80.6,0,0,0,1.5,14.64,26.88,26.88,0,0,0,6.57,13l-.85.6-35.09-1a34.05,34.05,0,0,0-7.28.31l-.06,0c4-3.34,4.43-9.22,4.56-14.43q.54-22.31,1.07-44.59C450,780.2,468.63,786.39,488,788a160.51,160.51,0,0,0,23,0C514.62,793,518.26,798.26,521.32,803.26Z" transform="translate(-154.57 -53.59)"/><path class="cls-3" d="M661.27,814.57c-7.23,6.6-16.52,10.38-25.59,14a106.77,106.77,0,0,1-11.87,4.24c-9.7,2.61-19.92,2.39-30,2a57.47,57.47,0,0,1-50.37-42.2,76,76,0,0,1-1.61-7.63c8.54-.89,17.09-1.63,25.65-1.7q3.22,0,6.45.06a40.82,40.82,0,0,0,5.37,14.45c4.47,7,13.73,11.31,21.73,11.13,12.32.16,18.71-2.38,28.81-9.55l.07,0q.34-4.77.43-9.54c9.88,1.38,19.78,2.55,29.73,3C660.51,799.74,660.49,807.92,661.27,814.57Z" transform="translate(-154.57 -53.59)"/><path class="cls-3" d="M797.88,860.74a296.94,296.94,0,0,0-43-7.23c-4-.36-8.08-.63-12.13-.89-23.33-1.54-48.7-3-72.07-2.15,3.89-5.55,10.57-9,13.53-15.05,1.54-3.17,1.91-6.76,2.17-10.27.83-10.83.89-21.7.91-32.56,8.31-.44,16.61-1.15,24.91-1.85l12.72-1.08q.18,15,1.3,29.88l.07-.08c8,0,16,1.5,24,1.82s16.48-.75,23-5.38c2.47-1.75,5.07-3,7.14-5.23,2.81-3,7.15-7,9.85-10.09-.94,10.09-1.88,20.24-1.07,30.34S792.17,852.37,797.88,860.74Z" transform="translate(-154.57 -53.59)"/><path class="cls-3" d="M252.62,851l-3-1c-19.93,2.58-39.89,5.16-59.57,9.25,10.6-9,11.63-24.22,11.8-38.12q.23-19.27.46-38.56,19.49-2.4,39-4.55c-1.41,18.56-1.84,37.17,1.6,55.39C244.15,840.21,246.53,847.66,252.62,851Z" transform="translate(-154.57 -53.59)"/><path class="cls-3" d="M383.61,769.41c-.27,22.43-4.48,40.23-23.06,40.23-22.27,0-23.06-17.82-23.08-40.27-11.16.51-22.31,1.33-33.43,2.3.76,36.42,16.81,65.5,56.08,65.5,36.95,0,54.81-28.39,56.05-64.2A301.73,301.73,0,0,0,383.61,769.41Z" transform="translate(-154.57 -53.59)"/><path class="cls-3" d="M521.32,803.26c-3.06-5-6.7-10.27-10.35-15.24a160.51,160.51,0,0,1-23,0c-19.34-1.58-37.94-7.77-56.87-12.07q-.53,22.29-1.07,44.59c-.13,5.21-.56,11.09-4.56,14.43l.06,0a34.05,34.05,0,0,1,7.28-.31l35.09,1,.85-.6a26.88,26.88,0,0,1-6.57-13,80.6,80.6,0,0,1-1.5-14.64c-.21-5.19-.72-12.71-.93-17.91A582.18,582.18,0,0,0,519.29,836c8.34,5.6,17.39,10.88,27.4,11.68l.2-1C535.89,834,530.11,817.63,521.32,803.26Z" transform="translate(-154.57 -53.59)"/><path class="cls-3" d="M661.27,814.57c-7.23,6.6-16.52,10.38-25.59,14a106.77,106.77,0,0,1-11.87,4.24c-9.7,2.61-19.92,2.39-30,2a57.47,57.47,0,0,1-50.37-42.2,76,76,0,0,1-1.61-7.63c8.54-.89,17.09-1.63,25.65-1.7q3.22,0,6.45.06a40.82,40.82,0,0,0,5.37,14.45c4.47,7,13.73,11.31,21.73,11.13,12.32.16,18.71-2.38,28.81-9.55l.07,0q.34-4.77.43-9.54c9.88,1.38,19.78,2.55,29.73,3C660.51,799.74,660.49,807.92,661.27,814.57Z" transform="translate(-154.57 -53.59)"/><path class="cls-3" d="M797.88,860.74a296.94,296.94,0,0,0-43-7.23c-4-.36-8.08-.63-12.13-.89-23.33-1.54-48.7-3-72.07-2.15,3.89-5.55,10.57-9,13.53-15.05,1.54-3.17,1.91-6.76,2.17-10.27.83-10.83.89-21.7.91-32.56,8.31-.44,16.61-1.15,24.91-1.85l12.72-1.08q.18,15,1.3,29.88l.07-.08c8,0,16,1.5,24,1.82s16.48-.75,23-5.38c2.47-1.75,5.07-3,7.14-5.23,2.81-3,7.15-7,9.85-10.09-.94,10.09-1.88,20.24-1.07,30.34S792.17,852.37,797.88,860.74Z" transform="translate(-154.57 -53.59)"/></g></g><g id="JDR"><g id="Calque_17" data-name="Calque 17"><path class="cls-3" d="M398.58,894c-.13,1.43-1.65,2.54-3.25,3.06a7.57,7.57,0,0,1-3.89.3,10.42,10.42,0,0,1-4.68-2.89l-.06,0a68.66,68.66,0,0,1-7.54,5.66l-.07.13a18.54,18.54,0,0,0,13.25,6.13,19.27,19.27,0,0,0,13.93-4.95,8.8,8.8,0,0,0,3.06-6.18h0c.41-13.35.22-26.22-.09-39.57h0q-4.8-.12-9.6-.06l-.47.05c.12,12.65-.05,25.33-.61,38Z" transform="translate(-154.57 -53.59)"/><path class="cls-3" d="M494.12,862.56c-1.67-3.78-3.1-4.8-7.33-5.85s-9.09-1.07-13.78-1.07c-3.95,0-8.3.42-12.25.42.58,16.17,0,32.74-.73,48.91a184,184,0,0,0,20.75-.39,31.82,31.82,0,0,0,8.11-1.36c4.21-1.52,5.17-3.17,6.26-5.78A186.65,186.65,0,0,0,494.12,862.56Zm-9,29.14c-.46,1.74-.86,2.84-2.61,3.85a9,9,0,0,1-3.37.9,47.74,47.74,0,0,1-8.62.26c.3-10.75.54-21.78.3-32.53,1.64,0,3.45-.28,5.09-.28a15.82,15.82,0,0,1,5.73.71,4.58,4.58,0,0,1,3,3.9A199.41,199.41,0,0,1,485.14,891.7Z" transform="translate(-154.57 -53.59)"/><path class="cls-3" d="M584.49,905.64a120,120,0,0,0-7.4-14.27l-4.16-7.21,0-.22a18,18,0,0,0,5-2c2.62-1.76,3.71-4.66,4.19-7.44a25,25,0,0,0,.12-7.52c-.36-2.6-.39-4.83-2.61-6.69-2.51-2.36-6.17-3.69-9.88-4.27a61.85,61.85,0,0,0-11.31-.36c-3.94.11-8.28.16-12.23.28,0,16.39-.28,33.14-.33,49.54,3.36.07,7.44-.05,10.81-.15q.32-10.15,0-20.32l.18-.07,4.77.05c3.93,6.81,7.53,13.88,10.77,20.93a119.71,119.71,0,0,1,12.13-.08ZM570.81,873a5.23,5.23,0,0,1-2.37,2.89,8.82,8.82,0,0,1-4.09.71c-2.49,0-5.59,0-8.07-.2,0-4.05.2-8.37.51-12.41a64.34,64.34,0,0,1,11,.81,4.23,4.23,0,0,1,1.89,1A3.49,3.49,0,0,1,571,867.3,8.76,8.76,0,0,1,570.81,873Z" transform="translate(-154.57 -53.59)"/></g><ellipse class="cls-4" cx="184.2" cy="826.93" rx="9.06" ry="8.52"/><path class="cls-5" d="M339,889.13a8.74,8.74,0,0,1-5-1.13,8.65,8.65,0,0,1-3.6-3.93,9.19,9.19,0,0,1-.75-2.64,10.14,10.14,0,0,1,.08-2.75,9.7,9.7,0,0,1,.94-2.61,10.28,10.28,0,0,1,1.67-2.21,9.57,9.57,0,0,1,4.87-2.49,9.43,9.43,0,0,1,5.38.64,9.78,9.78,0,0,1,2.3,1.44,10,10,0,0,1,1.74,2,8.51,8.51,0,0,1,1.2,5,8.73,8.73,0,0,0-5.67-7.43,8.49,8.49,0,0,0-8.78,1.85,8,8,0,0,0-1.91,8.67A8.91,8.91,0,0,0,339,889.13Z" transform="translate(-154.57 -53.59)"/><ellipse class="cls-6" cx="465.89" cy="827.45" rx="9.06" ry="8.52"/><path class="cls-5" d="M620.73,889.65a8.82,8.82,0,0,1-5-1.12,9.94,9.94,0,0,1-2.1-1.68,9.66,9.66,0,0,1-1.5-2.26,9.22,9.22,0,0,1-.75-2.63,10.22,10.22,0,0,1,.08-2.76,9.64,9.64,0,0,1,.94-2.6,9.74,9.74,0,0,1,1.67-2.21,9.29,9.29,0,0,1,12.55-.41,9.9,9.9,0,0,1,1.74,2,8.53,8.53,0,0,1,1.2,5,8.71,8.71,0,0,0-5.67-7.42,8.49,8.49,0,0,0-8.78,1.84,8,8,0,0,0-1.91,8.68A8.92,8.92,0,0,0,620.73,889.65Z" transform="translate(-154.57 -53.59)"/></g></g><g id="Calque_35" data-name="Calque 35"><g id="Calque_36" data-name="Calque 36"><path class="cls-7" d="M576,309s50.1-18.22,16.37-72.09c0,0-22.86-32.69-5.09-51.46,0,0-33.08,23.21-25,34.3s10.4,7.66,10.4,7.66-1.34-9.51,2-14a36.84,36.84,0,0,1,5.68,12.15c1.67,6.87-3.51,18,4.26,25.09,0,0-15.22-16.38-23.6-18s-18.07-19.8-12.39-32.21c0,0-24.05,21.38-11.69,33.27S583.73,293.56,576,309Z" transform="translate(-154.57 -53.59)"/><path class="cls-8" d="M564.7,143.08s35.95-12.57,11.15-39.51c0,0-2.5,7.33-7.64,9.91s.88,15,.88,15S572.72,137.83,564.7,143.08Z" transform="translate(-154.57 -53.59)"/><path class="cls-9" d="M558.82,77.33s.5,6.74-6.39,11.79-7.64,11.58-1.38,16.24,14.28-2.18,17.66-6.54S569.46,86.25,558.82,77.33Z" transform="translate(-154.57 -53.59)"/><path class="cls-10" d="M408.8,149.29s-28.73-10.17-16.2-32.35a59.86,59.86,0,0,1,4.17-7.26s4.51,6.87,10.19,8.71,10.69,11.89,5.68,16.11S406.29,144.67,408.8,149.29Z" transform="translate(-154.57 -53.59)"/><path class="cls-11" d="M390.93,156.81s15,5.68,15.7,13.47c0,0,3.4,9-4.56,13.2,0,0-6,5.15-11.14-1,0,0-2.67-3.3-4.18-3.17s-4.17-8.58,1.51-12S396.77,160.91,390.93,156.81Z" transform="translate(-154.57 -53.59)"/><path class="cls-12" d="M427.54,338.77H545.45s40.07-8.25,48.57-32.12c2.84-8,1.18-19.63-5-29.85a44.53,44.53,0,0,0-4.51-6.2c-1-1.09-2.63-2.75-4.6-4.73-8.29-8.34-14.87-14-16.09-15.12C558.54,246,552.23,236.6,548,216.09c0,0,5.48-16.1,11.66-24.29s11.53-37.76-25.21-56c0,0,7.68,32.48-13,43,0,0,6-11.35-8.68-18.75s4-34.06,4-34.06,25.06-38.81-65.13-71.29c0,0,35.74,38.55,6,58.62s-37.07,52.86-16.37,72.11c0,0,12.36-11.64,8.36-25.38,0,0,21.37,33.54-24,57,0,0-31.74,11.88-30.4,17.43,0,0-5.08-20.07,2.14-24.82,0,0-20.51,10.3-17.17,28C380.11,237.75,339,304.06,427.54,338.77Z" transform="translate(-154.57 -53.59)"/><path class="cls-13" d="M453.39,333.29h59.79s98.23-21.44,16.7-91.58c0,0,57.45,57-11,80,0,0,29.06-25.2,5.34-62.64,0,0-26.72-40.08-2.67-67.81,0,0-101.87,75.26-49.43,114.08,0,0-41.76,1.32-40.09-23.77s29.73-35.65,24.72-54.92c0,0-14,20.59-26.39,24.55s-30.28,37-15.64,54.66S431.35,327.8,453.39,333.29Z" transform="translate(-154.57 -53.59)"/><path class="cls-14" d="M417.32,240s-22.44,23.5-21.24,35.12C396.08,275.07,384.92,257.11,417.32,240Z" transform="translate(-154.57 -53.59)"/><path class="cls-15" d="M485.73,121.3s-.27,20.86,9.41,30.1,15.37,12.83,15.37,19.75a44,44,0,0,0-16-11.83C484.12,154.83,479.65,133.71,485.73,121.3Z" transform="translate(-154.57 -53.59)"/><path class="cls-16" d="M446.71,215.83a84,84,0,0,1,14.82-13.33,63.72,63.72,0,0,1,8.65-5.16,49.74,49.74,0,0,1,9.54-3.48c3.3-.81,6.64-1.23,9.86-1.72a58.52,58.52,0,0,0,9.47-2.15,142.49,142.49,0,0,0,18.14-7.69A81.29,81.29,0,0,1,499.74,192a52.44,52.44,0,0,1-9.74,2.67c-3.3.59-6.52,1-9.64,1.82a61.18,61.18,0,0,0-17.69,7.79A151,151,0,0,0,446.71,215.83Z" transform="translate(-154.57 -53.59)"/><path class="cls-17" d="M457.73,333.29h56.15s73.62-26.1,28.86-76.93c0,0,39.08,55.59-37.41,69.85,0,0,37.08-22.58,19.42-57.07,0,0-38.11-39.51-14.41-63.48,0,0-89.18,61.66-30.89,104.31,0,0-43.76,7.65-53.16-28.85-5.47-21.29,15.41-19.51,20.42-35.15,0,0-8.7,9.22-19.41,15-17.16,9.17-17.21,33.31-3.8,49.18C437.87,327.11,433.35,322.64,457.73,333.29Z" transform="translate(-154.57 -53.59)"/><path class="cls-18" d="M446.71,215.83a49.58,49.58,0,0,1,6.29-9.22,44,44,0,0,1,8.43-7.45,55.85,55.85,0,0,1,9.93-5.34A87.06,87.06,0,0,1,482,190.24c3.61-1,7.24-1.76,10.88-2.52s7.25-1.49,10.84-2.33a65.76,65.76,0,0,0,10.48-3.31,28.29,28.29,0,0,0,9.11-6.09,26.49,26.49,0,0,1-8.69,7,57.64,57.64,0,0,1-10.51,3.94c-7.19,2-14.5,3.33-21.59,5.27a73.47,73.47,0,0,0-20.24,8.29A51.65,51.65,0,0,0,446.71,215.83Z" transform="translate(-154.57 -53.59)"/></g></g><g id="Dé20"><g id="Calque_20" data-name="Calque 20"><g id="Calque_21" data-name="Calque 21"><polygon class="cls-19" points="168.71 312.37 160.14 511.39 331.84 619.59 508.74 514.34 501.38 316.95 334.44 228.59 168.71 312.37"/><polygon class="cls-20" points="335.15 613.02 418.92 460.87 253.66 460.87 335.15 613.02"/><polygon class="cls-21" points="502.69 311.96 446.82 410.7 508.86 508.38 502.69 311.96"/><polygon class="cls-22" points="444.6 416.34 333.35 616.25 505.26 514.03 444.6 416.34"/><polygon class="cls-23" points="335.15 227.69 371.99 289.86 508.86 315.7 335.15 227.69"/><polygon class="cls-24" points="374.26 289.86 504.96 313.67 448.69 411.75 374.26 289.86"/><polygon class="cls-22" points="164.92 510.1 228.06 411.75 338.24 617.38 164.92 510.1"/><polygon class="cls-23" points="303.14 289.51 342.63 226.38 172.02 310.15 303.14 289.51"/><polygon class="cls-21" points="163.46 506.66 174.48 313.67 227.19 407.04 163.46 506.66"/><polygon class="cls-25" points="303.14 289.51 176.12 311.18 227.19 407.04 303.14 289.51"/><g id="Calque_25" data-name="Calque 25"><path class="cls-26" d="M460.17,340.09q.19,7.82,1.13,15.57h0c8,12.4,19,24.26,30.32,33.73h0c9.93-10.89,20.63-22.16,31.23-32.4h0q.28-8.42.17-16.83h0c-9.95-18.29-21.8-36.28-30.78-52.89h0c-10.93,17.05-20.16,35.19-32.09,52.81" transform="translate(-154.57 -53.59)"/><path class="cls-27" d="M458.92,340.09c.11,4.39.39,8.78.85,13.14a10.07,10.07,0,0,0,.38,2.91c.07.15.18.25.26.4s.19.31.07.13c.28.43.56.86.85,1.29q1.67,2.49,3.45,4.91a155.1,155.1,0,0,0,16.06,18.39q2.49,2.44,5.08,4.8c1.58,1.43,3.34,2.72,4.84,4.22a1.27,1.27,0,0,0,1.77,0q8.24-9,16.7-17.83,4.26-4.43,8.6-8.75,2.1-2.1,4.23-4.18c.61-.59,1.61-1.25,2-2a8.86,8.86,0,0,0,.18-3q.19-7.17.1-14.35a1.27,1.27,0,0,0-2.14-.89h0l2,.26c-7.71-14.15-16.33-27.76-24.45-41.67-2.16-3.71-4.29-7.45-6.33-11.22a1.27,1.27,0,0,0-2-.26,35,35,0,0,0-2.91,4.57c-1.06,1.72-2.11,3.43-3.14,5.16-2.09,3.46-4.13,6.95-6.16,10.44-4.08,7-8.12,14-12.37,20.94-2.49,4-5,8-7.7,12-.9,1.34,1.27,2.59,2.16,1.27,9-13.37,16.79-27.51,25-41.35,1.11-1.87,2.23-3.72,3.36-5.57.61-1,1.22-2,1.84-3a19.81,19.81,0,0,1,1.66-2.69l-2-.25c7.51,13.87,16,27.18,23.94,40.8q3.51,6,6.84,12.09a1.26,1.26,0,0,0,2,.25h0l-2.13-.88q.11,8.41-.17,16.83l.36-.89c-10.78,10.43-21.11,21.32-31.22,32.4h1.77c-1.24-1.23-2.7-2.3-4-3.47s-2.88-2.62-4.29-4Q480,377,476,372.58c-2.68-3-5.25-6-7.68-9.17-1.18-1.54-2.33-3.11-3.43-4.7-.51-.73-1-1.46-1.5-2.2a6.27,6.27,0,0,0-1.43-1.93l.62,1.08q-.93-7.76-1.13-15.57a1.25,1.25,0,0,0-2.5,0Z" transform="translate(-154.57 -53.59)"/></g></g></g><g id="Calque_24" data-name="Calque 24"><path class="cls-28" d="M496.72,292.43A559.21,559.21,0,0,0,531,341.6c1,1.27,2.74-.51,1.77-1.77a553.13,553.13,0,0,1-33.86-48.66c-.84-1.37-3-.11-2.15,1.26Z" transform="translate(-154.57 -53.59)"/><path class="cls-28" d="M453.68,340.34l34.7-50.85c.91-1.33-1.25-2.58-2.16-1.26l-34.7,50.85c-.9,1.33,1.26,2.58,2.16,1.26Z" transform="translate(-154.57 -53.59)"/><path class="cls-28" d="M496.59,290.24q17.28,9.31,34.34,19a1.25,1.25,0,0,0,1.26-2.16q-17.06-9.72-34.34-19c-1.42-.76-2.68,1.4-1.26,2.16Z" transform="translate(-154.57 -53.59)"/><path class="cls-28" d="M528.19,307.55l19.47,10.65c1.41.77,2.68-1.38,1.26-2.16l-19.46-10.65c-1.42-.77-2.68,1.39-1.27,2.16Z" transform="translate(-154.57 -53.59)"/><path class="cls-28" d="M547.22,317q32.64,19.86,66.7,37.28,9.65,4.92,19.37,9.65c1.44.69,2.71-1.46,1.26-2.16q-34.38-16.7-67.48-35.88-9.35-5.41-18.59-11a1.25,1.25,0,0,0-1.26,2.16Z" transform="translate(-154.57 -53.59)"/><path class="cls-28" d="M528.16,340.69q39.39,9,79.17,16.31,11.14,2,22.33,3.94c1.57.26,2.25-2.15.66-2.42q-39.84-6.76-79.37-15.31-11.07-2.4-22.13-4.94c-1.56-.35-2.23,2.06-.66,2.42Z" transform="translate(-154.57 -53.59)"/><path class="cls-28" d="M628.28,360.37,603.77,356c-1.57-.28-2.25,2.13-.66,2.41l24.51,4.38c1.57.28,2.25-2.13.66-2.41Z" transform="translate(-154.57 -53.59)"/><path class="cls-28" d="M485.66,289.55q-27,11.82-53.41,24.77t-52.32,27q-14.88,8.09-29.57,16.54a1.25,1.25,0,0,0,1.26,2.16q25.77-14.82,52.16-28.55,26.13-13.58,52.8-26,15.09-7.05,30.34-13.74c1.47-.64.2-2.8-1.26-2.15Z" transform="translate(-154.57 -53.59)"/><path class="cls-28" d="M351.53,361.73q24.9-15.15,50.66-28.8t52.31-25.68q15.53-7,31.3-13.55c1.47-.6.83-3-.66-2.41q-27.61,11.38-54.51,24.42-26.31,12.78-51.83,27.15-14.4,8.1-28.53,16.71c-1.37.84-.12,3,1.26,2.16Z" transform="translate(-154.57 -53.59)"/><path class="cls-28" d="M485.15,292.16a494.71,494.71,0,0,0-62.79,28.31q-8.82,4.74-17.44,9.84a1.25,1.25,0,0,0,1.26,2.15,492,492,0,0,1,61.57-30.81q9-3.72,18.06-7.08c1.5-.56.85-3-.66-2.41Z" transform="translate(-154.57 -53.59)"/><path class="cls-28" d="M355.27,358.77q25.11-13.62,50.63-26.43t51.24-24.69q14.61-6.75,29.34-13.24c1.47-.65.2-2.8-1.26-2.16q-26.13,11.5-51.89,23.86t-50.89,25.41q-14.28,7.41-28.43,15.09c-1.41.77-.15,2.93,1.26,2.16Z" transform="translate(-154.57 -53.59)"/><path class="cls-28" d="M353.23,360.53q25.61-14.26,51.64-27.72t52.48-26.1q14.85-7.11,29.83-14c1.46-.66.19-2.82-1.26-2.15Q459.27,302.78,433,315.78t-52.12,26.81q-14.52,7.77-28.91,15.78c-1.41.78-.15,2.94,1.26,2.16Z" transform="translate(-154.57 -53.59)"/><path class="cls-28" d="M454.37,339.28q-40.22,8.75-80.81,15.64-11.42,1.93-22.86,3.72c-1.59.25-.92,2.66.66,2.41q40.67-6.35,81-14.58,11.36-2.33,22.67-4.78c1.57-.35.91-2.76-.66-2.41Z" transform="translate(-154.57 -53.59)"/><path class="cls-28" d="M346.87,360.15q42.58-4.9,84.65-13.4,11.79-2.38,23.51-5.05c1.57-.35.91-2.76-.66-2.41q-41.4,9.4-83.49,15.3-12,1.68-24,3.06c-1.58.18-1.6,2.68,0,2.5Z" transform="translate(-154.57 -53.59)"/><path class="cls-28" d="M454.87,337.3l-82.5,16.48-23.25,4.64c-1.58.32-.91,2.73.66,2.41l82.5-16.47,23.25-4.64c1.58-.32.91-2.73-.66-2.42Z" transform="translate(-154.57 -53.59)"/><path class="cls-28" d="M350,358.85l82.39-15.32,23-4.29c1.58-.29.92-2.7-.66-2.41l-82.38,15.32-23.05,4.29c-1.58.3-.91,2.71.66,2.41Z" transform="translate(-154.57 -53.59)"/><path class="cls-28" d="M485,291.72a387.7,387.7,0,0,0-31.31,45.19,1.25,1.25,0,0,0,2.16,1.26,384,384,0,0,1,30.92-44.68c1-1.24-.76-3-1.77-1.77Z" transform="translate(-154.57 -53.59)"/><path class="cls-28" d="M455.34,340.34,486.71,295c.91-1.33-1.25-2.58-2.16-1.26l-31.37,45.32c-.91,1.33,1.25,2.58,2.16,1.26Z" transform="translate(-154.57 -53.59)"/><path class="cls-28" d="M456.15,342.38l10.75-15.23c.93-1.32-1.24-2.57-2.16-1.26L454,341.12c-.93,1.32,1.23,2.57,2.15,1.26Z" transform="translate(-154.57 -53.59)"/><path class="cls-28" d="M458.49,341.38l13.92-20.76c.9-1.34-1.27-2.59-2.16-1.26l-13.91,20.76c-.9,1.34,1.26,2.6,2.15,1.26Z" transform="translate(-154.57 -53.59)"/><path class="cls-28" d="M466.21,329.24q8.39-14.75,16.9-29.41a1.25,1.25,0,0,0-2.16-1.26q-8.52,14.65-16.9,29.41a1.25,1.25,0,0,0,2.16,1.26Z" transform="translate(-154.57 -53.59)"/><path class="cls-28" d="M485.4,291.33Q476,306.4,466.15,321.25c-.89,1.35,1.27,2.6,2.15,1.26q9.82-14.83,19.26-29.92c.85-1.37-1.31-2.62-2.16-1.26Z" transform="translate(-154.57 -53.59)"/><path class="cls-28" d="M527.74,339.36a173.45,173.45,0,0,1-12.27-19.83c-.75-1.42-2.91-.16-2.16,1.26a173.45,173.45,0,0,0,12.27,19.83c.93,1.3,3.1.05,2.16-1.26Z" transform="translate(-154.57 -53.59)"/><path class="cls-28" d="M528,338.12q-5-7.1-9.45-14.59l-2.15,1.26q5.07,8.35,10.8,16.29l2-1.52a201.84,201.84,0,0,1-20.65-31.11c-.77-1.41-2.93-.15-2.16,1.26a205.61,205.61,0,0,0,21,31.62c.88,1.09,2.79-.36,2-1.51q-5.72-7.94-10.81-16.29a1.25,1.25,0,0,0-2.15,1.26q4.4,7.5,9.44,14.59c.92,1.3,3.09.05,2.16-1.26Z" transform="translate(-154.57 -53.59)"/><path class="cls-28" d="M516,320.32q-8.82-13.2-17.21-26.68c-.85-1.36-3-.11-2.16,1.26q8.38,13.49,17.21,26.68c.89,1.33,3.06.08,2.16-1.26Z" transform="translate(-154.57 -53.59)"/><path class="cls-28" d="M530.28,342.9A86.28,86.28,0,0,0,546.45,346a1.26,1.26,0,0,0,1.25-1.25,1.28,1.28,0,0,0-1.25-1.25,82.43,82.43,0,0,1-15.5-3,1.25,1.25,0,0,0-.67,2.41Z" transform="translate(-154.57 -53.59)"/><path class="cls-28" d="M535.17,343.26a211.73,211.73,0,0,0,23.54,5.82c1.57.29,2.25-2.12.66-2.42a209.49,209.49,0,0,1-23.54-5.81c-1.54-.47-2.2,1.94-.66,2.41Z" transform="translate(-154.57 -53.59)"/><path class="cls-28" d="M525.86,341.26a40.49,40.49,0,0,0,10.95,2.25,1.26,1.26,0,0,0,1.25-1.25,1.28,1.28,0,0,0-1.25-1.25,37.76,37.76,0,0,1-10.29-2.16,1.25,1.25,0,1,0-.66,2.41Z" transform="translate(-154.57 -53.59)"/><path class="cls-28" d="M532.42,342.71a403.69,403.69,0,0,0,46.1,11.6c1.57.3,2.24-2.11.66-2.41a404.22,404.22,0,0,1-46.1-11.6c-1.54-.48-2.2,1.93-.66,2.41Z" transform="translate(-154.57 -53.59)"/><path class="cls-28" d="M563.69,350.66q14.43,3.4,29.1,5.61c1.57.24,2.25-2.17.66-2.41q-14.66-2.21-29.1-5.61c-1.56-.37-2.23,2-.66,2.41Z" transform="translate(-154.57 -53.59)"/><path class="cls-28" d="M540.53,315a194.74,194.74,0,0,0,18.63,10.24c1.45.69,2.71-1.46,1.26-2.16a194.58,194.58,0,0,1-18.62-10.24c-1.37-.85-2.63,1.31-1.27,2.16Z" transform="translate(-154.57 -53.59)"/><path class="cls-28" d="M497.65,292.89q36.11,20.55,73.87,38,11,5,22,9.81c1.46.63,2.73-1.52,1.26-2.16Q556.46,322,519.62,302.19q-10.43-5.61-20.71-11.46a1.25,1.25,0,0,0-1.26,2.16Z" transform="translate(-154.57 -53.59)"/><path class="cls-28" d="M529.89,308.85Q564,329.08,599.3,347.28q9.88,5.1,19.87,10c1.43.71,2.7-1.44,1.26-2.16q-35.56-17.58-70-37.26-9.67-5.52-19.24-11.19a1.25,1.25,0,0,0-1.26,2.15Z" transform="translate(-154.57 -53.59)"/><path class="cls-28" d="M501,295.08l-3-4.63a1.25,1.25,0,0,0-2.16,1.27l3,4.62a1.25,1.25,0,0,0,2.16-1.26Z" transform="translate(-154.57 -53.59)"/><path class="cls-28" d="M498.24,290.11l-2.83-4.92a1.25,1.25,0,1,0-2.16,1.26l2.83,4.92a1.25,1.25,0,1,0,2.16-1.26Z" transform="translate(-154.57 -53.59)"/><path class="cls-28" d="M500.4,293.89a88.18,88.18,0,0,1-5.16-9.51,1.25,1.25,0,0,0-2.16,1.26,87.24,87.24,0,0,0,5.16,9.51c.85,1.36,3,.11,2.16-1.26Z" transform="translate(-154.57 -53.59)"/><path class="cls-28" d="M498.74,292.45,495,286.54a1.25,1.25,0,1,0-2.16,1.26l3.76,5.91a1.25,1.25,0,0,0,2.16-1.26Z" transform="translate(-154.57 -53.59)"/><path class="cls-28" d="M488.09,284.44A148.62,148.62,0,0,0,479.22,297c-.74,1.17,1.07,2.64,2,1.51L492.55,284a1.29,1.29,0,0,0,0-1.77,1.27,1.27,0,0,0-1.77,0q-6.4,7.53-12.21,15.54a1.25,1.25,0,0,0,.45,1.71,1.28,1.28,0,0,0,1.71-.45q5.61-7.74,11.82-15l-1.77-1.77-11.37,14.47,2,1.51a141.74,141.74,0,0,1,8.48-12,1.29,1.29,0,0,0,0-1.77,1.27,1.27,0,0,0-1.77,0Z" transform="translate(-154.57 -53.59)"/><path class="cls-28" d="M487.63,287.05a98.16,98.16,0,0,1-7.18,10.45l2,1.51,9.92-13.59a1.26,1.26,0,0,0-.45-1.71,1.28,1.28,0,0,0-1.71.44l-9.92,13.6c-.83,1.14,1.08,2.63,2,1.52a102.73,102.73,0,0,0,7.58-11,1.25,1.25,0,0,0-2.16-1.26Z" transform="translate(-154.57 -53.59)"/><path class="cls-28" d="M489.19,285.66a106.85,106.85,0,0,0-9.78,13.21c-.86,1.37,1.3,2.62,2.16,1.26a103,103,0,0,1,9.38-12.7c1.05-1.21-.71-3-1.76-1.77Z" transform="translate(-154.57 -53.59)"/><path class="cls-28" d="M489.05,286l-12.27,16.75a1.25,1.25,0,0,0,2.16,1.27l12.27-16.76a1.26,1.26,0,0,0-.45-1.71,1.28,1.28,0,0,0-1.71.45Z" transform="translate(-154.57 -53.59)"/><path class="cls-28" d="M486.65,288.44,476.1,303.79c-.91,1.33,1.25,2.58,2.16,1.26l10.55-15.35c.92-1.33-1.25-2.58-2.16-1.26Z" transform="translate(-154.57 -53.59)"/><path class="cls-28" d="M483.13,298.63l9.14-12.23a1.25,1.25,0,0,0-.45-1.71,1.27,1.27,0,0,0-1.71.45L481,297.37a1.26,1.26,0,0,0,.45,1.71,1.29,1.29,0,0,0,1.71-.45Z" transform="translate(-154.57 -53.59)"/><path class="cls-28" d="M486,289.65,481.85,295a1.4,1.4,0,0,0-.37.89,1.26,1.26,0,0,0,2.14.88l4.16-5.36a1.39,1.39,0,0,0,.36-.89,1.25,1.25,0,0,0-2.13-.88Z" transform="translate(-154.57 -53.59)"/><path class="cls-28" d="M487.63,292.46l.66-.93-2.16-1.27-3.73,5.4,2.28,1a11.27,11.27,0,0,1,3.1-4.27l-2-1.52a31.11,31.11,0,0,1-2.67,3.58l2,1.52a40.53,40.53,0,0,1,4.19-7.32l-2.16-1.26a41.28,41.28,0,0,1-4.3,7.46,1.25,1.25,0,0,0,2,1.51l4.77-6.11-2-1.51a15.45,15.45,0,0,1-3,4l2,1.51,4-6.36a1.25,1.25,0,0,0-2.16-1.26l-4,6.36c-.78,1.22.95,2.49,2,1.52a17.54,17.54,0,0,0,3.35-4.5,1.25,1.25,0,0,0-.32-1.61,1.24,1.24,0,0,0-1.64.09L483,294.55l2,1.52a41.28,41.28,0,0,0,4.3-7.46,1.29,1.29,0,0,0-.45-1.71,1.28,1.28,0,0,0-1.71.45,40.53,40.53,0,0,0-4.19,7.32,1.27,1.27,0,0,0,.33,1.61,1.24,1.24,0,0,0,1.64-.1,36,36,0,0,0,3.06-4.09,1.23,1.23,0,0,0-.32-1.61,1.26,1.26,0,0,0-1.64.1,13.77,13.77,0,0,0-3.74,5.38,1.24,1.24,0,0,0,.72,1.47,1.28,1.28,0,0,0,1.57-.51l3.73-5.39a1.25,1.25,0,0,0-2.16-1.27l-.66.94a1.26,1.26,0,0,0,.45,1.71,1.29,1.29,0,0,0,1.71-.45Z" transform="translate(-154.57 -53.59)"/><path class="cls-29" d="M349.68,485.07q-.85-22.43-1-44.86a5,5,0,0,0-10,0q.16,22.44,1,44.86a5,5,0,0,0,10,0Z" transform="translate(-154.57 -53.59)"/><path class="cls-29" d="M644,484.91c.66-7.35.53-14.83.73-22.21l.6-22.48a5,5,0,1,0-10,0l-.6,22.48c-.2,7.38-.07,14.86-.73,22.21-.24,2.61,2.47,5.11,5,5a5.14,5.14,0,0,0,5-5Z" transform="translate(-154.57 -53.59)"/><path class="cls-30" d="M475.22,313.93a42.74,42.74,0,0,0,4.89-7.38,1.25,1.25,0,0,0-2.16-1.26,40.94,40.94,0,0,1-2.12,3.63c-.38.58-.77,1.14-1.18,1.7l-.31.42a1.56,1.56,0,0,1-.16.2l-.1.14c.05-.07-.08.11-.1.12l-.16.21-.36.45a1.25,1.25,0,0,0,1.76,1.77Z" transform="translate(-154.57 -53.59)"/><path class="cls-28" d="M473.64,316a77.7,77.7,0,0,1,6.18-11.51c.88-1.35-1.28-2.6-2.16-1.26a77.7,77.7,0,0,0-6.18,11.51,1.29,1.29,0,0,0,.44,1.71,1.27,1.27,0,0,0,1.72-.45Z" transform="translate(-154.57 -53.59)"/><path class="cls-28" d="M474,316.58q3.36-6.1,6.82-12.16a1.25,1.25,0,0,0-2.16-1.26q-3.46,6-6.82,12.16c-.77,1.41,1.39,2.67,2.16,1.26Z" transform="translate(-154.57 -53.59)"/><path class="cls-28" d="M475,314.39l10.21-17.21a1.25,1.25,0,0,0-2.16-1.26l-10.21,17.21a1.25,1.25,0,0,0,2.16,1.26Z" transform="translate(-154.57 -53.59)"/><path class="cls-28" d="M479.27,307.42l13.09-20.12c.88-1.36-1.28-2.61-2.15-1.27l-13.09,20.13c-.88,1.35,1.28,2.6,2.15,1.26Z" transform="translate(-154.57 -53.59)"/><path class="cls-28" d="M492.7,287l.06,0-.26-.19a3.67,3.67,0,0,1,.71.71l-.19-.25a4,4,0,0,1,.44.71l2-1.51-.9-1.05-.26-.2a1,1,0,0,0-.46-.15.62.62,0,0,0-.33,0,1,1,0,0,0-.47.15l-.25.2-.2.25a1,1,0,0,0-.15.46.94.94,0,0,0,0,.5l.32.76,2.09-1.21-.48-.49a1,1,0,0,0-.4-.26,1,1,0,0,0-.48-.11,1,1,0,0,0-.48.11,1,1,0,0,0-.41.26,1.22,1.22,0,0,0-.36.88,1.34,1.34,0,0,0,.36.89l.48.48.25.2a1,1,0,0,0,.47.15.62.62,0,0,0,.33,0,1,1,0,0,0,.46-.15l.26-.2.19-.25a1,1,0,0,0,.15-.46.94.94,0,0,0,0-.5l-.32-.76-2.09,1.21.9,1.05a.92.92,0,0,0,.4.26.91.91,0,0,0,.49.11l.33-.05a.85.85,0,0,0,.42-.22.61.61,0,0,0,.23-.22,1,1,0,0,0,.22-.43l.05-.33a1.24,1.24,0,0,0-.17-.63,5.45,5.45,0,0,0-.71-1.06,5.52,5.52,0,0,0-1-.86,1,1,0,0,0-.46-.15.94.94,0,0,0-.5,0,.93.93,0,0,0-.43.22,1.07,1.07,0,0,0-.32.35,1.29,1.29,0,0,0-.13,1l.13.3a1.21,1.21,0,0,0,.45.45Z" transform="translate(-154.57 -53.59)"/><path class="cls-28" d="M480.26,295.1,473.21,308c-.78,1.41,1.38,2.67,2.16,1.26l7.05-12.85c.77-1.41-1.39-2.67-2.16-1.26Z" transform="translate(-154.57 -53.59)"/><path class="cls-28" d="M479.91,295.73l-5.16,9.79a1.25,1.25,0,1,0,2.16,1.26l5.16-9.79a1.28,1.28,0,0,0-.45-1.71,1.27,1.27,0,0,0-1.71.45Z" transform="translate(-154.57 -53.59)"/><path class="cls-28" d="M480,295.62a83.42,83.42,0,0,0-5.28,10.2,1.29,1.29,0,0,0,.44,1.71,1.26,1.26,0,0,0,1.71-.45,86.32,86.32,0,0,1,5.28-10.2,1.25,1.25,0,0,0-2.15-1.26Z" transform="translate(-154.57 -53.59)"/><path class="cls-28" d="M479.12,295.61q-1.85,5.64-4,11.17a1.25,1.25,0,0,0,2.41.67q2.18-5.54,4-11.18c.49-1.53-1.92-2.19-2.41-.66Z" transform="translate(-154.57 -53.59)"/><path class="cls-28" d="M479,296.26c-1.72,4-3.29,8.05-4.68,12.16-.52,1.53,1.9,2.19,2.41.67q2-5.86,4.43-11.57a1.25,1.25,0,0,0-2.16-1.26Z" transform="translate(-154.57 -53.59)"/><path class="cls-28" d="M500.49,293.37a41.16,41.16,0,0,0,2.22,9.28,1.29,1.29,0,0,0,1.54.87,1.26,1.26,0,0,0,.87-1.54,38.07,38.07,0,0,1-2.13-8.61,1.29,1.29,0,0,0-1.25-1.25,1.26,1.26,0,0,0-1.25,1.25Z" transform="translate(-154.57 -53.59)"/><path class="cls-28" d="M604.28,355.25q-7.9-1.8-16-2.79a1.25,1.25,0,0,0-1.25,1.25,1.29,1.29,0,0,0,1.25,1.25,154.94,154.94,0,0,1,15.3,2.7c1.57.36,2.23-2.05.66-2.41Z" transform="translate(-154.57 -53.59)"/><path class="cls-28" d="M580.2,351.62l-29-5.29c-1.58-.29-2.25,2.12-.67,2.41L579.53,354c1.58.29,2.25-2.12.67-2.41Z" transform="translate(-154.57 -53.59)"/><path class="cls-28" d="M568.2,348q-9.71-1.87-19.52-3a1.26,1.26,0,0,0-1.25,1.25,1.28,1.28,0,0,0,1.25,1.25q9.48,1.13,18.86,2.95c1.57.3,2.24-2.11.66-2.41Z" transform="translate(-154.57 -53.59)"/><path class="cls-28" d="M525.1,335.35a43.65,43.65,0,0,0,3,6.25,1.25,1.25,0,1,0,2.15-1.26c-.54-.94-1.05-1.89-1.52-2.87-.22-.47-.44-1-.65-1.43l-.09-.21c0-.11-.09-.21-.13-.31l-.33-.84a1.29,1.29,0,0,0-1.54-.87,1.27,1.27,0,0,0-.87,1.54Z" transform="translate(-154.57 -53.59)"/><path class="cls-28" d="M609.91,347.33c-.65-1.17-1.95-1.76-3-2.43l-4-2.38L595,337.77a1.25,1.25,0,0,0-1.26,2.15l7.42,4.47,3.71,2.23,1.74,1a2.82,2.82,0,0,1,1.16.94,1.25,1.25,0,0,0,2.16-1.27Z" transform="translate(-154.57 -53.59)"/><path class="cls-28" d="M595.48,339.07l-.07,0,.62,1.08V340l-.17.63,0-.07-1.08.62H595l-.63-.17c.92.42,1.79,1,2.67,1.51l2.67,1.51,5.46,3.11,1.26-2.16c-4.25-2.12-8.56-4.1-13-5.79-1.34-.5-2.2,1.62-1,2.29l14.68,7.94c1.41.77,2.68-1.39,1.26-2.16l-14.68-7.94-1,2.28a134.84,134.84,0,0,1,12.41,5.54c1.43.71,2.67-1.36,1.26-2.16l-7.5-4.26-1.9-1.09a8.34,8.34,0,0,0-1.69-.9,1.36,1.36,0,0,0-1.07,2.47c1.42.76,2.68-1.4,1.26-2.16Z" transform="translate(-154.57 -53.59)"/><path class="cls-28" d="M608.58,349.61l.71.26.35.14c.13.05.12.05,0,0l.17.08c.43.19.86.39,1.28.61a22.12,22.12,0,0,1,2.51,1.53,1.25,1.25,0,0,0,1.71-.45,1.29,1.29,0,0,0-.45-1.71,22.68,22.68,0,0,0-5.59-2.85,1.25,1.25,0,0,0-1.53.87,1.29,1.29,0,0,0,.87,1.54Z" transform="translate(-154.57 -53.59)"/><path class="cls-28" d="M618.51,355.39l-9.91-.34a1.25,1.25,0,0,0,0,2.5l9.91.34a1.26,1.26,0,0,0,1.25-1.25,1.28,1.28,0,0,0-1.25-1.25Z" transform="translate(-154.57 -53.59)"/><path class="cls-28" d="M610,357.51q4.68-.52,9.37-.91a1.29,1.29,0,0,0,1.25-1.25,1.26,1.26,0,0,0-1.25-1.25q-4.7.39-9.37.91a1.28,1.28,0,0,0-1.25,1.25,1.26,1.26,0,0,0,1.25,1.25Z" transform="translate(-154.57 -53.59)"/><path class="cls-28" d="M612.39,352.13l17.89,8.46c1.45.68,2.72-1.47,1.26-2.16L613.65,350c-1.45-.69-2.72,1.47-1.26,2.15Z" transform="translate(-154.57 -53.59)"/><path class="cls-28" d="M631.61,363.43q2.85.65,5.65,1.49a1.26,1.26,0,0,0,1.54-.87,1.28,1.28,0,0,0-.87-1.54q-2.8-.84-5.66-1.5a1.25,1.25,0,1,0-.66,2.42Z" transform="translate(-154.57 -53.59)"/><path class="cls-28" d="M367.51,354.84q4.42-3.61,9-7a1.28,1.28,0,0,0,.44-1.71,1.27,1.27,0,0,0-1.71-.45q-4.86,3.6-9.54,7.43a1.26,1.26,0,0,0,0,1.76,1.28,1.28,0,0,0,1.77,0Z" transform="translate(-154.57 -53.59)"/><path class="cls-28" d="M370.31,353.83q5.46-5.16,11.34-9.87a1.25,1.25,0,0,0,0-1.76,1.27,1.27,0,0,0-1.77,0q-5.86,4.69-11.34,9.86c-1.17,1.11.6,2.88,1.77,1.77Z" transform="translate(-154.57 -53.59)"/></g><g id="détails"><path class="cls-2" d="M593,409.24c3.53-4.57,10.84-9.17,16.11-11.55h0c-9.75-2.16-20.29-12.45-26.82-20h0c5.76,8.31,10.74,21.51,10.88,31.62" transform="translate(-154.57 -53.59)"/><path class="cls-2" d="M375.93,396.78c7.93-3.65,17.23-11.21,23.3-17.48h0a56.45,56.45,0,0,0-9.42,29.39h0a31,31,0,0,0-15.21-11.51" transform="translate(-154.57 -53.59)"/><path class="cls-29" d="M638.62,436.88c-2.31,2.33-2,6.09-2.15,9.11q-.26,6.42-.24,12.84c0,8.47.44,16.95,1.22,25.39.14,1.51,0,3.73,1.37,4.76a2,2,0,0,0,2.95-.46.63.63,0,0,0-1.08-.63c-.69,1.15-1.56-.55-1.69-1a7.88,7.88,0,0,1-.18-1.45c-.12-1.14-.22-2.29-.32-3.44q-.27-3.19-.46-6.4-.4-6.53-.52-13.07t.08-13.08q.09-3.21.25-6.42c.1-1.87.26-3.86,1.65-5.27a.62.62,0,0,0-.88-.88Z" transform="translate(-154.57 -53.59)"/><path class="cls-29" d="M642.78,487.89q.91-14.73.78-29.49c0-4.62,0-9.3-.4-13.9-.27-3.16-1.06-6.48-3.88-8.32-.68-.44-1.31.64-.63,1.08,3.07,2,3.26,6.18,3.39,9.49q.26,6.81.29,13.63.06,13.77-.8,27.51c0,.8,1.2.8,1.25,0Z" transform="translate(-154.57 -53.59)"/><path class="cls-29" d="M340.73,439.2a202.35,202.35,0,0,0-1.45,26.5q.08,6.65.59,13.27c.16,2,.3,4.07.58,6.09a5.23,5.23,0,0,0,1.65,3.58c2.27,1.74,5.32-.12,6.32-2.38a13,13,0,0,0,.77-5.15c0-2.23,0-4.47.05-6.7l.19-26.54c0-3.7.81-8.83-2.49-11.45-3-2.4-6.28-.16-7.65,2.84-.33.73.74,1.36,1.08.63.61-1.34,1.58-2.81,3.11-3.19,1.95-.48,3.6,1.2,4.21,2.89a13.67,13.67,0,0,1,.52,4.81c0,1.9,0,3.8,0,5.71L348,472.68c0,3.48.17,7.06-.14,10.53-.14,1.65-.6,3.45-2.12,4.36a2.45,2.45,0,0,1-3.86-1.62,28.1,28.1,0,0,1-.6-5c-.16-1.8-.29-3.59-.4-5.4-.22-3.76-.35-7.53-.36-11.3a201.23,201.23,0,0,1,1.46-25c.09-.8-1.16-.79-1.25,0Z" transform="translate(-154.57 -53.59)"/><path class="cls-29" d="M490.94,312.37a115.3,115.3,0,0,0,2.71,20.68c3.63,4.13,7,5.23,12.34,6.34-6.18,2-8.63,3.88-11.47,6.61-.91,13.48-1,29.26-3.27,43.34-2.29-14.08-3-29.86-3.95-43.34-2.83-2.73-5.28-4.57-11.46-6.61,5.39-1.11,8.7-2.21,12.34-6.34a117.14,117.14,0,0,0,2.71-20.68" transform="translate(-154.57 -53.59)"/><path class="cls-29" d="M490.31,312.37c.15,3.56.45,7.1.92,10.63.21,1.56.45,3.12.73,4.67a37.76,37.76,0,0,0,1,5.31c.35,1.08,1.58,2,2.45,2.72a15.68,15.68,0,0,0,3,2,28.66,28.66,0,0,0,7.4,2.31v-1.21a31.53,31.53,0,0,0-8.57,4.07,29,29,0,0,0-2.76,2.32c-.61.57-.59.82-.65,1.68l-.18,3c-.47,8.33-.72,16.67-1.37,25-.37,4.8-.88,9.58-1.64,14.33h1.2c-1.36-8.41-2.13-16.91-2.74-25.41-.3-4.13-.56-8.26-.83-12.39l-.18-2.82a10.25,10.25,0,0,0-.19-2.72c-.36-.92-1.88-1.86-2.66-2.47a30.76,30.76,0,0,0-9.25-4.58V340a28.61,28.61,0,0,0,7.41-2.31,15.66,15.66,0,0,0,2.84-1.87c.9-.74,2.21-1.71,2.58-2.83a37.71,37.71,0,0,0,1-5.08c.29-1.63.54-3.26.76-4.9.48-3.53.77-7.07.92-10.63,0-.8-1.22-.8-1.25,0a118.16,118.16,0,0,1-2.39,19.11,3.39,3.39,0,0,1-.93,2c-.42.43-.86.85-1.31,1.23a14.59,14.59,0,0,1-2.85,1.9,27.62,27.62,0,0,1-7.11,2.18c-.64.14-.54,1,0,1.21a29.28,29.28,0,0,1,8.49,4.11c.81.6,2.35,1.55,2.56,2.53a38.92,38.92,0,0,1,.37,5.62c.51,8,1,16,1.84,24,.45,4.45,1,8.88,1.72,13.29a.63.63,0,0,0,1.2,0,223.71,223.71,0,0,0,2.27-23.68c.21-4,.38-8,.58-12,.1-1.89.19-3.78.31-5.67a3.6,3.6,0,0,1,.37-2.08,9.34,9.34,0,0,1,1.44-1.29,28.36,28.36,0,0,1,9.33-4.77.63.63,0,0,0,0-1.21,28.11,28.11,0,0,1-7-2.1,15,15,0,0,1-2.86-1.87,18.4,18.4,0,0,1-1.45-1.34,3.58,3.58,0,0,1-.93-2,119.43,119.43,0,0,1-2.39-19.11c0-.8-1.28-.8-1.25,0Z" transform="translate(-154.57 -53.59)"/><g id="Calque_38" data-name="Calque 38"><path class="cls-17" d="M460.81,429a41,41,0,0,1-.06-6.27c0-.47.07-.93.12-1.39,0-.24.05-.47.08-.7-.11.93,0,.13,0-.05.19-1.07.39-2.13.65-3.19s.48-1.81.77-2.69c.13-.39.26-.77.41-1.14L463,413c-.16.39-.26.58,0,.09a24,24,0,0,1,1.26-2.28l.46-.66c.31-.46-.14.19-.18.23.33-.33.62-.7,1-1l.44-.41c.77-.74-.13.11-.14.07s.83-.54,1-.61,1.39-.6.76-.4,0,0,.11,0l.72-.2c.18-.05.37-.07.55-.12.56-.15-.38.09-.41.05s1.15,0,1.28,0c.56,0-.37,0-.41-.08a2.16,2.16,0,0,0,.53.11c.24.06.47.15.71.22.6.15-.67-.42-.18-.06.15.11,1.14.63.55.29s0,0,.19.18a4.68,4.68,0,0,1,.39.38c.13.12.24.28.37.4.43.4-.27-.28-.21-.3a8.2,8.2,0,0,1,.82,1.23c.19.32.36.65.53,1,.08.17.15.35.24.51.33.62-.3-.83-.06-.17.31.85.62,1.69.87,2.56s.49,1.84.68,2.78q.15.75.27,1.5c0,.09.1.81,0,.2s0,.32,0,.42a40,40,0,0,1,.13,5.89c-.05,1-.12,1.91-.23,2.86,0,.22-.05.44-.07.66,0-.08.12-.82,0-.23s-.18,1.17-.29,1.76c-.35,2-.81,4-1.34,5.92a107.56,107.56,0,0,1-3.92,11.42q-.54,1.37-1.11,2.73c0,.05-.31.74-.1.23s-.13.31-.19.44c-.21.5-.43,1-.65,1.51q-1.31,3-2.64,6-6,13.41-12.66,26.51c-.76,1.49-1.08,3.59,0,5.05A10.73,10.73,0,0,0,460,494a65.49,65.49,0,0,0,7.28.21l16.63.18a5,5,0,0,0,0-10l-14.67-.16c-2.4,0-4.79,0-7.18-.08l-1,0-.69-.07c.76.11.87.12.32,0-.35-.11-1.66-.68-.35,0-.45-.28-.38-.2.23.24-.37-.37-.32-.28.14.29v5.05q6.51-12.76,12.37-25.85c3.83-8.54,7.78-17.17,10.14-26.26,2.32-8.91,3.12-18.61.12-27.47-1.44-4.28-3.85-8.72-8.05-10.85a14.23,14.23,0,0,0-14.06.9c-4.53,2.92-7.18,7.71-8.71,12.75A43.38,43.38,0,0,0,450.81,429c.23,2.6,2.14,5.12,5,5,2.52-.12,5.24-2.21,5-5Z" transform="translate(-154.57 -53.59)"/><path class="cls-17" d="M494.66,437.5a200.7,200.7,0,0,0,.28,20.67c.27,4.31.66,8.62,1.12,12.91a69.06,69.06,0,0,0,2,12.39c1.09,3.72,2.87,7.62,5.84,10.23a14.72,14.72,0,0,0,13.27,3.43,18.81,18.81,0,0,0,11-8.12c2.75-4.11,3.68-9.2,4.09-14s.34-9.49.33-14.22q0-7.63-.32-15.26-.6-15.11-2.39-30.13c-.57-4.8-1.23-9.92-4.07-14s-7.49-7.32-12.71-6.95c-5,.35-8.87,3.35-11.65,7.34-2.17,3.11-3.15,6.75-4.18,10.34a53.34,53.34,0,0,0-1.58,11.12l-1,13.32-.07.95a5,5,0,0,0,5,5,5.11,5.11,0,0,0,5-5l.7-9.73.44-6c0-.51.09-1,.1-1.52,0-.72-.19,1.28-.06.46s.23-1.65.35-2.47a34.85,34.85,0,0,1,1.09-4.73c.24-.82.44-1.64.69-2.44.13-.39.26-.77.4-1.15a2.34,2.34,0,0,0,.19-.5c-.06.83-.23.54,0,.06a20.22,20.22,0,0,1,1.22-2.18l.3-.44c.31-.47.35-.09-.15.16.28-.14.58-.68.8-.91s.57-.56.86-.83c.55-.52-.21.07-.22.15s.36-.25.41-.28a7.35,7.35,0,0,1,1-.57s-1,.32-.44.18c.26-.06.52-.18.78-.25s.33-.05.48-.1c.62-.23-1,0-.33,0a5.88,5.88,0,0,0,1.25,0c-.07.06-.94-.21-.43,0,.17.06.36.09.53.14a3,3,0,0,1,.69.23c-.24-.19-.73-.38-.19,0,.2.13,1.26.73.73.41s0,0,.09.07l.55.51c.31.31.6.64.89,1s-.2-.25-.21-.26c.21.12.39.59.51.79.24.41.46.83.67,1.25.41.86-.15-.5.14.4a30.41,30.41,0,0,1,.85,3.11c.11.5.2,1,.28,1.49,0,.22.07.43.1.65s.15,1.06.06.41,0,.11,0,.19c0,.29.07.57.11.86.07.65.15,1.3.22,2q.39,3.42.71,6.85.67,7,1.08,14,.83,14,.64,28c0,2.14-.06,4.28-.16,6.41,0,1-.12,2-.22,3,0,.22,0,.43-.07.64,0-.18.16-1,0-.05-.09.56-.19,1.12-.3,1.67a24.23,24.23,0,0,1-.71,2.66c-.15.47-.32.93-.5,1.39.39-1-.25.43-.4.72s-.44.75-.68,1.11a2.72,2.72,0,0,1-.31.45s.79-.92.09-.12c-.22.24-1.59,1.95-1.87,1.84,0,0,.77-.53.13-.11l-.47.31A12.37,12.37,0,0,1,516,487a4.54,4.54,0,0,0-.66.32c0-.07.88-.3.35-.17s-.91.29-1.39.39c-1.16.24.62,0-.26,0H513c-1,0,.23,0,.26,0a3.77,3.77,0,0,0-.53-.12c-.21,0-1.56-.37-.79-.22s-.25-.16-.51-.31l-.49-.3c.64.38-.22-.22-.42-.42s-.7-.92-.82-.91.58.84.31.4c-.11-.18-.25-.35-.36-.52s-.34-.54-.5-.82-.36-.66-.53-1a5,5,0,0,1-.28-.59s.4,1,.12.27a33.58,33.58,0,0,1-1.38-4.72c-.16-.72-.29-1.45-.4-2.18,0-.24-.22-1.46-.11-.66s0,.16,0,0l-.12-1.06c-.47-4.18-.89-8.38-1.22-12.57-.52-6.61-.78-13.22-.67-19.84,0-1.51.07-3,.13-4.51a5,5,0,0,0-5-5A5.11,5.11,0,0,0,494.66,437.5Z" transform="translate(-154.57 -53.59)"/></g><path class="cls-29" d="M597.9,550.16c3.53,4.58,10.84,9.17,16.11,11.56h0c-9.75,2.15-20.29,12.45-26.82,20h0c5.76-8.32,10.74-21.51,10.88-31.63" transform="translate(-154.57 -53.59)"/><path class="cls-29" d="M380.8,562.62c7.93,3.65,17.23,11.22,23.3,17.49h0a56.55,56.55,0,0,1-9.43-29.4h0a30.85,30.85,0,0,1-15.2,11.51" transform="translate(-154.57 -53.59)"/><path class="cls-29" d="M490.16,608.37a115.3,115.3,0,0,1,2.71-20.68c3.63-4.13,6.95-5.23,12.34-6.34-6.18-2-8.63-3.88-11.47-6.61-.91-13.48-1-29.26-3.27-43.34-2.29,14.08-3,29.86-4,43.34-2.83,2.73-5.28,4.57-11.46,6.61,5.39,1.11,8.7,2.21,12.34,6.34a116.21,116.21,0,0,1,2.71,20.68" transform="translate(-154.57 -53.59)"/><path class="cls-29" d="M490.78,608.37a119.43,119.43,0,0,1,2.39-19.11,3.48,3.48,0,0,1,.93-2q.63-.64,1.32-1.23a14.74,14.74,0,0,1,2.85-1.9,27.43,27.43,0,0,1,7.1-2.18.63.63,0,0,0,0-1.21,29.53,29.53,0,0,1-8.49-4.11c-.8-.6-2.34-1.55-2.56-2.53a36.32,36.32,0,0,1-.32-5.62c-.41-8-.69-16-1.35-24-.37-4.45-.87-8.88-1.58-13.29a.63.63,0,0,0-1.2,0c-1.27,7.85-2,15.76-2.64,23.68-.31,4-.57,8-.82,12q-.18,2.84-.37,5.68a3.75,3.75,0,0,1-.37,2.07,9.83,9.83,0,0,1-1.44,1.29,28.41,28.41,0,0,1-9.34,4.77c-.54.18-.64,1.07,0,1.21a28,28,0,0,1,7,2.11,14.33,14.33,0,0,1,2.86,1.86,18.4,18.4,0,0,1,1.45,1.34,3.51,3.51,0,0,1,.93,2,118.3,118.3,0,0,1,2.39,19.11c0,.8,1.29.8,1.25,0-.15-3.56-.44-7.1-.92-10.63-.21-1.56-.45-3.12-.72-4.67a37.76,37.76,0,0,0-1-5.31c-.35-1.08-1.59-2-2.45-2.72a16.34,16.34,0,0,0-3-2,28.61,28.61,0,0,0-7.41-2.31V582a31.39,31.39,0,0,0,8.57-4.07,26.67,26.67,0,0,0,2.76-2.32c.61-.57.6-.82.66-1.68s.13-2,.19-3c.54-8.33,1-16.67,1.86-25,.47-4.79,1.05-9.58,1.81-14.33h-1.2A232.44,232.44,0,0,1,492.19,557c.21,4.13.39,8.26.61,12.39l.15,2.82a10.25,10.25,0,0,0,.19,2.72c.36.92,1.88,1.86,2.65,2.47A30.88,30.88,0,0,0,505,582v-1.21a28.66,28.66,0,0,0-7.4,2.31,16.2,16.2,0,0,0-2.84,1.87c-.9.74-2.22,1.71-2.58,2.83a36.21,36.21,0,0,0-1,5.08c-.29,1.63-.55,3.26-.77,4.9-.47,3.53-.77,7.07-.92,10.63,0,.8,1.22.8,1.25,0Z" transform="translate(-154.57 -53.59)"/></g><g id="Calque_18" data-name="Calque 18"><g id="Calque_19" data-name="Calque 19"><polygon class="cls-31" points="172.02 310.15 163.46 509.18 335.15 617.38 512.06 512.13 504.69 314.74 337.76 226.38 172.02 310.15"/><polygon class="cls-32" points="337.69 233.69 174.73 509.81 164.51 503.52 337.69 233.69"/><polygon class="cls-32" points="337.69 233.69 513.99 510.9 503.74 517.15 337.69 233.69"/><polygon class="cls-32" points="335.15 609.77 169.19 310.9 179.78 305.25 335.15 609.77"/><polygon class="cls-32" points="335.15 609.77 497.47 310.72 507.91 316.63 335.15 609.77"/><line class="cls-33" x1="257.55" y1="460.87" x2="418.92" y2="460.87"/><line class="cls-34" x1="371.99" y1="289.64" x2="495.26" y2="313.67"/><line class="cls-33" x1="303.14" y1="289.51" x2="176.12" y2="311.18"/></g></g></g></svg>