<?xml version="1.0" encoding="utf-8"?>
<!-- Generator: Adobe Illustrator 24.2.1, SVG Export Plug-In . SVG Version: 6.00 Build 0)  -->
<svg version="1.1" id="Calque_1" xmlns="http://www.w3.org/2000/svg" xmlns:xlink="http://www.w3.org/1999/xlink" x="0px" y="0px"
	 viewBox="0 0 1000 1000" style="enable-background:new 0 0 1000 1000;" xml:space="preserve">
<style type="text/css">
	.st0{display:none;}
	.st1{display:inline;fill:url(#SVGID_1_);}
	.st2{display:inline;}
	.st3{fill:none;stroke:#FFFFFF;stroke-width:10;stroke-linecap:round;stroke-miterlimit:10;}
	.st4{display:inline;fill:none;stroke:#FFFFFF;stroke-width:10;stroke-miterlimit:10;}
	.st5{display:inline;fill:none;stroke:#FFFFFF;stroke-width:10;stroke-linecap:round;stroke-miterlimit:10;}
	.st6{display:inline;fill:url(#SVGID_2_);}
	.st7{fill:none;stroke:#FCFCFC;stroke-width:10;stroke-linecap:round;stroke-miterlimit:10;}
	.st8{display:inline;fill:url(#SVGID_3_);}
	.st9{display:inline;fill:url(#SVGID_4_);}
	.st10{display:inline;fill:url(#SVGID_5_);}
	.st11{opacity:0.5;}
	.st12{fill:none;stroke:#000000;stroke-width:10;stroke-linecap:round;stroke-miterlimit:10;}
	.st13{fill:none;stroke:#000000;stroke-width:10;stroke-linecap:round;stroke-linejoin:round;stroke-miterlimit:10;}
</style>
<g id="Calque_1_1_" class="st0">
	
		<linearGradient id="SVGID_1_" gradientUnits="userSpaceOnUse" x1="267.9097" y1="183.3996" x2="729.9097" y2="813.3995" gradientTransform="matrix(1 0 0 -1 0 1002)">
		<stop  offset="0" style="stop-color:#2596BE"/>
		<stop  offset="1" style="stop-color:#15576E"/>
	</linearGradient>
	<path class="st1" d="M884.5,663.2V336.8c0-35.8-19.1-68.9-50.1-86.8L551.7,86.8c-31-17.9-69.2-17.9-100.2,0L168.7,250
		c-31,17.9-50.1,51-50.1,86.8v326.5c0,35.8,19.1,68.9,50.1,86.8l282.7,163.2c31,17.9,69.2,17.9,100.2,0L834.4,750
		C865.4,732.1,884.5,699,884.5,663.2z"/>
	<g class="st2">
		<circle class="st3" cx="512" cy="437.9" r="142.2"/>
		<path class="st3" d="M512,580.1c-203,2.3-185.5,223.2-185.5,223.2"/>
		<path class="st3" d="M700.2,803.4c0,0,2.1-223.2-188.2-223.2"/>
	</g>
	<circle class="st4" cx="673.4" cy="272" r="65"/>
	<line class="st5" x1="629.9" y1="272" x2="716.4" y2="272"/>
	<line class="st5" x1="673.4" y1="233" x2="673.4" y2="314"/>
</g>
<g id="Calque_2_1_" class="st0">
	
		<linearGradient id="SVGID_2_" gradientUnits="userSpaceOnUse" x1="277.0144" y1="183.406" x2="739.0144" y2="813.406" gradientTransform="matrix(1 0 0 -1 0 1002)">
		<stop  offset="0" style="stop-color:#2644B6"/>
		<stop  offset="1" style="stop-color:#2D2463"/>
	</linearGradient>
	<path class="st6" d="M893.6,663.2V336.8c0-35.8-19.1-68.9-50.1-86.8L560.8,86.8c-31-17.9-69.2-17.9-100.2,0L177.8,250
		c-31,17.9-50.1,51-50.1,86.8v326.5c0,35.8,19.1,68.9,50.1,86.8l282.7,163.2c31,17.9,69.2,17.9,100.2,0L843.5,750
		C874.5,732.1,893.6,699,893.6,663.2z"/>
	<g id="Calque_7" class="st2">
		
			<image style="display:none;overflow:visible;enable-background:new    ;" width="69" height="46" xlink:href="6ACE8E72.jpg"  transform="matrix(44.5637 0 0 44.5637 -285.0297 -563.8586)">
		</image>
		<path class="st7" d="M660.2,356.2c0,0,72.8,85.3,4.5,182.2s-52.9,59.2-57.9,90.8l-1.8,60.3c0,0-1.5,24.6-34.1,25.6H444.4
			c0,0-28.6,6-28.6-28.1s0-49.7,0-49.7s1-30.1-27.6-53.7c-28.6-23.6-47.1-57.3-49.6-104.5c-2.6-47.1,3-116.6,44.8-154.2
			c73.7-66.4,151.5-64.6,207-32.8c0,0,15.1,3.9,50.8,43.7"/>
		<line class="st7" x1="365.1" y1="605.6" x2="341.6" y2="628.7"/>
		<line class="st7" x1="308.4" y1="454.6" x2="266.3" y2="454.6"/>
		<line class="st7" x1="365.1" y1="303.6" x2="341.6" y2="280.5"/>
		<line class="st7" x1="511.2" y1="240.3" x2="511.2" y2="208.2"/>
		<line class="st7" x1="660.2" y1="306.6" x2="684.8" y2="280.5"/>
		<line class="st7" x1="717.4" y1="456.6" x2="755.1" y2="456.6"/>
		<line class="st7" x1="660.2" y1="610.7" x2="684.8" y2="631.2"/>
		<path class="st7" d="M462.5,681.4V582v-23c0,0,1-16.6,9.5-16.1h85.3c0,0,6.5-1,6.5,11.6v28.6v132.4"/>
		<line class="st7" x1="462.5" y1="582.1" x2="563.9" y2="582.1"/>
		<rect x="475.5" y="505.8" class="st7" width="74.3" height="37.1"/>
		<path class="st7" d="M513.9,353.7l-71,94.8c0,0,35.1,38.6,39.6,57.2"/>
		<path class="st7" d="M514.3,353.7l71,94.8c0,0-35.1,38.6-39.6,57.2"/>
		<line class="st7" x1="513.9" y1="459.1" x2="513.9" y2="353.7"/>
		<line class="st7" x1="445.4" y1="755.7" x2="546.8" y2="755.7"/>
		<path class="st7" d="M444.4,715l-1.5,65.2c0,0-3.5,21.6,26.1,23.1h90.3c0,0,19.1,4,18.1-22.1v-65.8"/>
	</g>
	<g id="Calque_8" class="st2">
	</g>
	<g class="st2">
		<circle class="st3" cx="-1275.3" cy="490" r="142.2"/>
		<path class="st3" d="M-1275.3,632.2c-203,2.3-185.5,223.2-185.5,223.2"/>
		<path class="st3" d="M-1087.1,855.4c0,0,2.1-223.2-188.2-223.2"/>
	</g>
	<circle class="st4" cx="-1113.8" cy="324.1" r="65"/>
	<line class="st5" x1="-1157.4" y1="324.1" x2="-1070.8" y2="324.1"/>
	<line class="st5" x1="-1113.8" y1="285.1" x2="-1113.8" y2="366.1"/>
</g>
<g id="Calque_4" class="st0">
	
		<linearGradient id="SVGID_3_" gradientUnits="userSpaceOnUse" x1="266.3798" y1="194.7158" x2="728.3798" y2="824.7158" gradientTransform="matrix(1 0 0 -1 0 1002)">
		<stop  offset="0" style="stop-color:#7028C2"/>
		<stop  offset="1" style="stop-color:#3B1567"/>
	</linearGradient>
	<path class="st8" d="M882.9,651.9V325.4c0-35.8-19.1-68.9-50.1-86.8L550.1,75.4c-31-17.9-69.2-17.9-100.2,0L167.2,238.7
		c-31,17.9-50.1,51-50.1,86.8V652c0,35.8,19.1,68.9,50.1,86.8L449.9,902c31,17.9,69.2,17.9,100.2,0l282.7-163.2
		C863.8,720.8,882.9,687.7,882.9,651.9z"/>
	<g id="Calque_9" class="st2">
		<g>
			<circle class="st3" cx="278.4" cy="441.1" r="46.2"/>
			<path class="st3" d="M278.4,487.4c-65.9,0.7-60.3,72.5-60.3,72.5"/>
			<path class="st3" d="M339.5,559.9c0,0,0.7-72.5-61.1-72.5"/>
		</g>
		<circle class="st3" cx="278.4" cy="483.3" r="119.4"/>
		<g>
			<circle class="st3" cx="669" cy="310.4" r="46.2"/>
			<path class="st3" d="M669,356.6c-65.9,0.7-60.3,72.5-60.3,72.5"/>
			<path class="st3" d="M730.1,429.2c0,0,0.7-72.5-61.1-72.5"/>
		</g>
		<circle class="st3" cx="669" cy="352.6" r="119.4"/>
		<g>
			<circle class="st3" cx="659.5" cy="593.7" r="46.2"/>
			<path class="st3" d="M659.5,639.9c-65.9,0.7-60.3,72.5-60.3,72.5"/>
			<path class="st3" d="M720.7,712.4c0,0,0.7-72.5-61.1-72.5"/>
		</g>
		<circle class="st3" cx="659.9" cy="636.1" r="119.4"/>
		<line class="st3" x1="392.3" y1="447.5" x2="556.6" y2="392.9"/>
		<line class="st3" x1="386.2" y1="534.6" x2="545.2" y2="602.7"/>
	</g>
</g>
<g id="Calque_5" class="st0">
	
		<linearGradient id="SVGID_4_" gradientUnits="userSpaceOnUse" x1="266.3586" y1="173.398" x2="728.3586" y2="803.3981" gradientTransform="matrix(1 0 0 -1 0 1002)">
		<stop  offset="0" style="stop-color:#BE0A80"/>
		<stop  offset="1" style="stop-color:#621053"/>
	</linearGradient>
	<path class="st9" d="M882.9,673.2V346.8c0-35.8-19.1-68.9-50.1-86.8L550.1,96.8c-31-17.9-69.2-17.9-100.2,0L167.2,260
		c-31,17.9-50.1,51-50.1,86.8v326.5c0,35.8,19.1,68.9,50.1,86.8l282.7,163.2c31,17.9,69.2,17.9,100.2,0L832.8,760
		C863.8,742.1,882.9,709,882.9,673.2z"/>
	<g id="Calque_11" class="st2">
	</g>
</g>
<g id="Calque_6" class="st0">
	
		<linearGradient id="SVGID_5_" gradientUnits="userSpaceOnUse" x1="275.6774" y1="197.4087" x2="737.6775" y2="827.4086" gradientTransform="matrix(1 0 0 -1 0 1002)">
		<stop  offset="0" style="stop-color:#8A1219"/>
		<stop  offset="1" style="stop-color:#470C10"/>
	</linearGradient>
	<path class="st10" d="M892.2,649.2V322.8c0-35.8-19.1-68.9-50.1-86.8L559.4,72.8c-31-17.9-69.2-17.9-100.2,0L176.5,236
		c-31,17.9-50.1,51-50.1,86.8v326.5c0,35.8,19.1,68.9,50.1,86.8l282.7,163.2c31,17.9,69.2,17.9,100.2,0L842.2,736
		C873.1,718.1,892.2,685,892.2,649.2z"/>
	<g id="Calque_10" class="st2">
	</g>
	<g class="st2">
		<circle class="st3" cx="303.7" cy="461.4" r="63"/>
		<path class="st3" d="M303.7,524.4c-90,1-82.2,98.9-82.2,98.9"/>
		<path class="st3" d="M387.1,623.4c0,0,0.9-98.9-83.4-98.9"/>
	</g>
	<path class="st5" d="M753.2,604.6c-36,26.6-129.8,45.6-240,45.6c-68.3,0-130.3-7.3-176.1-19.2c-14.8-3.8-27.9-8.1-39-12.8"/>
	<path class="st5" d="M594.5,514.5c27.6,2.3,47.6,5.4,70.3,10"/>
	<path class="st5" d="M336.6,530.1c27.8-7.6,53.1-12.3,91.3-15.7"/>
	<g class="st2">
		<circle class="st3" cx="718.5" cy="447.8" r="63"/>
		<path class="st3" d="M718.5,510.9c-90,1-82.2,98.9-82.2,98.9"/>
		<path class="st3" d="M801.9,609.8c0,0,0.9-98.9-83.4-98.9"/>
	</g>
	<g class="st2">
		
			<ellipse transform="matrix(0.7071 -0.7071 0.7071 0.7071 -114.1238 470.6807)" class="st3" cx="511.1" cy="373.1" rx="63" ry="63"/>
		<path class="st3" d="M511.1,436.2c-90,1-82.2,98.9-82.2,98.9"/>
		<path class="st3" d="M594.5,535.1c0,0,0.9-98.9-83.4-98.9"/>
	</g>
	<path class="st5" d="M429.6,514.7"/>
	<path class="st5" d="M596.8,514.7"/>
	<path class="st5" d="M669.5,525.4"/>
	<path class="st5" d="M745.7,620.8"/>
</g>
<g id="Calque_3" class="st11">
	
		<image style="display:none;overflow:visible;enable-background:new    ;" width="1162" height="214" xlink:href="6ACE8E76.jpg"  transform="matrix(3.1277 0 0 3.1277 -2061.3279 -710.4377)">
	</image>
	<path class="st12" d="M645.3,364.7v286c0,24.8-20.1,44.9-44.9,44.9H418.3c-24.8,0-44.9-20.1-44.9-44.9V352.1
		c0-24.8,20.1-44.9,44.9-44.9h162.5"/>
	<path class="st12" d="M606.5,695.2c-5.6,18.4-22.7,31.8-42.9,31.8H381.4c-24.8,0-44.9-20.1-44.9-44.9V383.5
		c0-22.7,16.9-41.5,38.8-44.5"/>
	<line class="st12" x1="504.1" y1="455.4" x2="504.1" y2="543.6"/>
	<line class="st12" x1="548.2" y1="500.5" x2="459.9" y2="500.5"/>
	<path class="st13" d="M645.3,363.4l-63.6-56.1V352c0,0,4.3,17.5,18.8,17.8s44.9,0,44.9,0"/>
</g>
</svg>
